<svg width="110" height="42" viewBox="0 0 110 42" fill="none" xmlns="http://www.w3.org/2000/svg">
<path d="M9.16039 8.43302C8.41002 11.7923 9.43406 15.3452 11.879 17.7856C14.3238 20.226 17.8788 21.2436 21.2365 20.4869C21.987 17.1277 20.963 13.5745 18.5181 11.1343C16.6058 9.22571 14.0151 8.18733 11.3703 8.1875C10.6334 8.18754 9.89198 8.26818 9.16039 8.43302Z" fill="#2D3040"/>
<path d="M21.7602 21.0036C22.6979 17.4345 21.7648 13.4757 18.9646 10.6808C16.1644 7.88608 12.2042 6.96021 8.63673 7.90448C7.69897 11.4737 8.63236 15.4323 11.4324 18.227C14.2324 21.0219 18.1927 21.9479 21.7602 21.0036ZM20.6996 19.9451C17.6714 20.491 14.5209 19.5237 12.3255 17.3323C10.1301 15.1409 9.15695 11.9922 9.69733 8.96298C12.7255 8.41701 15.8762 9.3845 18.0714 11.5757C20.2668 13.7671 21.2401 16.9158 20.6996 19.9451Z" fill="#E5EAFF"/>
<path d="M7.28651 6.67466C7.64609 6.30559 8.12783 6.10224 8.64301 6.10156C9.68875 6.10068 10.5403 6.95079 10.5413 7.99651C10.5416 8.49452 10.3505 8.96522 10.0028 9.32186C9.64322 9.69072 9.16151 9.89424 8.6465 9.89478C7.60077 9.89562 6.7491 9.04573 6.74805 8C6.74771 7.50179 6.93898 7.03125 7.28651 6.67466Z" fill="#2D3040"/>
<path d="M10.4569 9.76224C10.9015 9.30603 11.1752 8.68237 11.1745 7.99521C11.1733 6.59847 10.0401 5.46749 8.64367 5.46875C7.93425 5.46942 7.2938 5.76185 6.83498 6.23255C6.39035 6.68877 6.11664 7.31243 6.11719 7.99975C6.11857 9.39632 7.25179 10.5275 8.6482 10.526C9.35746 10.5254 9.99808 10.2329 10.4569 9.76224ZM9.55131 8.87976H9.55152C9.31175 9.12582 8.99049 9.26143 8.64716 9.26176C8.30946 9.26214 7.99167 9.1309 7.75279 8.89219C7.51378 8.65369 7.38181 8.33627 7.38148 7.9987C7.38131 7.66659 7.50868 7.35266 7.74038 7.11504C7.9801 6.86898 8.30139 6.73337 8.64472 6.73303C9.34187 6.73249 9.90954 7.29911 9.91022 7.99626C9.91059 8.32821 9.78318 8.64197 9.55131 8.87976Z" fill="#E5EAFF"/>
<path d="M20.3947 19.6667C20.7543 19.2976 21.2361 19.0943 21.7512 19.0938C22.7969 19.0929 23.6484 19.9428 23.6495 20.9885C23.6499 21.4865 23.4588 21.9572 23.1111 22.3139C22.7516 22.6827 22.2697 22.8863 21.7547 22.8866C20.709 22.8877 19.8575 22.0378 19.8564 20.992C19.8559 20.494 20.0472 20.0233 20.3947 19.6667Z" fill="#2D3040"/>
<path d="M23.5661 22.7624C24.0108 22.3062 24.2844 21.6826 24.2839 20.9952C24.2825 19.5986 23.1494 18.4677 21.7529 18.4688C21.0437 18.4696 20.403 18.7622 19.9442 19.2327C19.4995 19.6889 19.2258 20.3126 19.2266 21C19.2278 22.3965 20.361 23.5275 21.7576 23.5263C22.4666 23.5255 23.1073 23.2329 23.5661 22.7624ZM22.6605 21.8801C22.4208 22.1258 22.0997 22.2616 21.7563 22.262C21.0592 22.2626 20.4915 21.6958 20.4907 20.9987C20.4905 20.6666 20.6179 20.3528 20.8496 20.1152C21.0893 19.8692 21.4106 19.7335 21.7541 19.733C22.0918 19.7329 22.4094 19.8641 22.6483 20.1026C22.8875 20.3413 23.0193 20.6587 23.0194 20.9964C23.0198 21.3284 22.8922 21.6421 22.6605 21.8801Z" fill="#E5EAFF"/>
<path d="M12.489 16.3125C9.03465 16.3158 5.8014 18.1098 3.96191 21.0193C5.80665 23.9252 9.04326 25.7136 12.4977 25.7104C15.952 25.7071 19.1852 23.9131 21.0247 21.0036C19.1816 18.1002 15.949 16.3125 12.498 16.3125H12.489Z" fill="#2D3040"/>
<path d="M21.7658 21.0021C19.9051 17.8154 16.4461 15.676 12.4898 15.6797C8.53347 15.6834 5.07849 17.8291 3.22363 21.0193C5.08445 24.2062 8.54348 26.3454 12.4996 26.3417C16.4559 26.3381 19.9111 24.1923 21.7658 21.0021ZM20.2674 21.0035C18.5122 23.531 15.6004 25.0746 12.4984 25.0774C9.39652 25.0804 6.4819 23.5421 4.72204 21.0179C6.47736 18.4905 9.38918 16.947 12.4909 16.944C15.5929 16.941 18.5075 18.4793 20.2674 21.0035Z" fill="#E5EAFF"/>
<path d="M1.38786 21.0842C1.38122 20.5688 1.57806 20.0845 1.94205 19.7198C2.68065 18.9798 3.88389 18.9787 4.62409 19.7173C4.97653 20.0692 5.17426 20.5373 5.18056 21.0352C5.18723 21.5504 4.99035 22.0349 4.62657 22.3994C3.88776 23.1396 2.68452 23.1406 1.94449 22.4018C1.59188 22.0501 1.39416 21.582 1.38786 21.0842Z" fill="#2D3040"/>
<path d="M5.81385 21.0507C5.80562 20.4138 5.55838 19.7793 5.07189 19.2937C4.0834 18.3071 2.48226 18.3085 1.49566 19.297C0.994669 19.7989 0.748485 20.4586 0.757052 21.116C0.765116 21.753 1.01269 22.3875 1.49902 22.8731C2.48751 23.8597 4.08849 23.8581 5.07509 22.8697C5.57607 22.3677 5.82242 21.708 5.81385 21.0507ZM4.54973 21.067C4.5541 21.4105 4.42286 21.7336 4.18033 21.9766C3.94166 22.2156 3.62442 22.3474 3.28667 22.3478C2.94897 22.3481 2.63118 22.2169 2.3923 21.9784C2.15733 21.7435 2.02535 21.4317 2.02116 21.0997C2.01679 20.7562 2.14805 20.4332 2.39058 20.1902C2.88317 19.6969 3.68513 19.696 4.1786 20.1884C4.41362 20.4231 4.54536 20.7351 4.54973 21.067Z" fill="#E5EAFF"/>
<path d="M19.8605 21.0139C19.8539 20.4987 20.0507 20.0142 20.4147 19.6495C21.1533 18.9095 22.3565 18.9083 23.0966 19.6471C23.4492 19.999 23.6469 20.4671 23.6532 20.9649C23.6599 21.4801 23.463 21.9646 23.0992 22.3291C22.3604 23.0693 21.1572 23.0704 20.4172 22.3317C20.0646 21.9798 19.8668 21.5119 19.8605 21.0139Z" fill="#2D3040"/>
<path d="M24.2838 20.9649C24.2756 20.3279 24.0281 19.6935 23.5416 19.2077C22.5533 18.2211 20.9521 18.2227 19.9656 19.211C19.4646 19.7131 19.2184 20.3729 19.2268 21.03C19.235 21.6671 19.4824 22.3016 19.9689 22.7873C20.9574 23.7738 22.5584 23.7723 23.545 22.7839C24.046 22.2819 24.2922 21.6222 24.2838 20.9649ZM23.0196 20.9814C23.0238 21.3247 22.8928 21.6477 22.6503 21.8908C22.1576 22.3841 21.3555 22.3847 20.862 21.8923C20.627 21.6577 20.4953 21.3459 20.4911 21.0139C20.4867 20.6704 20.6179 20.3474 20.8605 20.1043C21.099 19.8653 21.4164 19.7335 21.7541 19.7332C22.0919 19.7328 22.4095 19.864 22.6485 20.1026C22.8835 20.3372 23.0153 20.6492 23.0196 20.9814Z" fill="#E5EAFF"/>
<path d="M11.8863 24.2412C9.44588 26.6861 8.42833 30.2412 9.185 33.599C12.5442 34.3492 16.0974 33.3251 18.5376 30.8802C20.978 28.4353 21.9956 24.8806 21.2391 21.5227C20.5129 21.3605 19.7779 21.2812 19.047 21.2812C16.3959 21.2812 13.7993 22.3247 11.8863 24.2412Z" fill="#2D3040"/>
<path d="M21.7615 20.9932C18.1924 20.0554 14.2336 20.9886 11.4387 23.7888C8.64393 26.589 7.71804 30.5491 8.66226 34.1166C12.2315 35.0544 16.1901 34.121 18.9849 31.321C21.7798 28.521 22.7058 24.5607 21.7615 20.9932ZM20.7029 22.0538C21.2489 25.082 20.2815 28.2325 18.0902 30.4279C15.8988 32.6233 12.75 33.5964 9.72081 33.056C9.17484 30.0279 10.1423 26.8772 12.3335 24.682C14.5249 22.4866 17.6737 21.5133 20.7029 22.0538Z" fill="#E5EAFF"/>
<path d="M7.42071 35.4579C7.05168 35.0983 6.84833 34.6166 6.84766 34.1014C6.84677 33.0557 7.69685 32.2042 8.74258 32.2031C9.24063 32.2028 9.71132 32.3939 10.068 32.7416C10.4368 33.1012 10.6403 33.5829 10.6408 34.0979C10.6417 35.1436 9.79184 35.9953 8.74611 35.9964C8.24789 35.9967 7.77735 35.8054 7.42071 35.4579Z" fill="#2D3040"/>
<path d="M10.5094 32.2879C10.0532 31.8433 9.42951 31.5696 8.7423 31.5703C7.34556 31.5715 6.2146 32.7047 6.21582 34.1011C6.21654 34.8106 6.50892 35.451 6.97967 35.9098C7.43584 36.3545 8.05951 36.6282 8.74688 36.6276C10.1435 36.6262 11.2746 35.493 11.2732 34.0966C11.2725 33.3874 10.9801 32.7467 10.5094 32.2879ZM9.62689 33.1935V33.1933C9.87291 33.4331 10.0085 33.7543 10.0089 34.0977C10.0092 34.4354 9.87799 34.7531 9.63932 34.992C9.40082 35.231 9.08336 35.363 8.74583 35.3633C8.41368 35.3635 8.09975 35.2361 7.86212 35.0044C7.6161 34.7647 7.48049 34.4434 7.48011 34.1001C7.4796 33.4029 8.0462 32.8353 8.74335 32.8346C9.07534 32.8342 9.38906 32.9616 9.62689 33.1935Z" fill="#E5EAFF"/>
<path d="M20.4332 22.3485C20.0642 21.9889 19.8609 21.5072 19.8604 20.992C19.8595 19.9463 20.7094 19.0948 21.7551 19.0938C22.2532 19.0934 22.7239 19.2845 23.0805 19.6322C23.4494 19.9916 23.6529 20.4736 23.6532 20.9885C23.6543 22.0343 22.8044 22.8858 21.7586 22.8868C21.2606 22.8873 20.7899 22.6961 20.4332 22.3485Z" fill="#2D3040"/>
<path d="M23.5193 19.1787C23.0631 18.7341 22.4394 18.4604 21.7521 18.4609C20.3555 18.4623 19.2245 19.5954 19.2256 20.992C19.2265 21.7012 19.5191 22.3418 19.9896 22.8006C20.4458 23.2453 21.0694 23.519 21.7568 23.5183C23.1534 23.5171 24.2843 22.3838 24.2831 20.9872C24.2824 20.2782 23.9898 19.6376 23.5193 19.1787ZM22.637 20.0843C22.8827 20.3241 23.0185 20.6451 23.0188 20.9884C23.0195 21.6856 22.4527 22.2533 21.7556 22.2542C21.4234 22.2543 21.1097 22.1269 20.872 21.8952C20.626 21.6555 20.4904 21.3343 20.4899 20.9908C20.4897 20.653 20.6209 20.3354 20.8594 20.0966C21.0982 19.8573 21.4156 19.7256 21.7533 19.7254C22.0853 19.725 22.399 19.8526 22.637 20.0843Z" fill="#E5EAFF"/>
<path d="M17.0625 30.2622C17.0655 33.7166 18.8598 36.9498 21.7694 38.7893C24.6752 36.9446 26.4636 33.708 26.4603 30.2535C26.4571 26.7993 24.663 23.566 21.7534 21.7266C18.8474 23.5715 17.0592 26.8079 17.0625 30.2622Z" fill="#2D3040"/>
<path d="M21.7551 20.9922C18.5684 22.8528 16.4289 26.3118 16.4326 30.2681C16.4363 34.2244 18.582 37.6794 21.7722 39.5341C24.9591 37.6734 27.0983 34.2144 27.0947 30.2583C27.091 26.302 24.9453 22.8469 21.7551 20.9922ZM21.7565 22.4906C24.284 24.2457 25.8276 27.1575 25.8304 30.2594C25.8333 33.3614 24.295 36.276 21.7708 38.0358C19.2435 36.2805 17.6999 33.3687 17.6969 30.2669C17.6939 27.1651 19.2323 24.2504 21.7565 22.4906Z" fill="#E5EAFF"/>
<path d="M21.8517 41.3788C21.3364 41.3854 20.852 41.1886 20.4874 40.8246C19.7473 40.086 19.7463 38.8828 20.4849 38.1428C20.8368 37.7902 21.3049 37.5924 21.8028 37.5861C22.3179 37.5795 22.8025 37.7763 23.167 38.1401C23.9072 38.8789 23.9082 40.0822 23.1694 40.8222C22.8177 41.1748 22.3496 41.3725 21.8517 41.3788Z" fill="#2D3040"/>
<path d="M21.7939 36.9533C21.1569 36.9616 20.5225 37.2088 20.0368 37.6953C19.0503 38.6838 19.0517 40.2849 20.0402 41.2715C20.5421 41.7725 21.2017 42.0187 21.8592 42.0101C22.4961 42.0021 23.1307 41.7545 23.6163 41.268C24.6028 40.2797 24.6013 38.6787 23.6129 37.6922C23.1109 37.1911 22.4512 36.9448 21.7939 36.9533ZM21.8102 38.2174C22.1537 38.2131 22.4767 38.3443 22.7198 38.5869C22.9588 38.8255 23.0906 39.1428 23.0909 39.4805C23.0913 39.8183 22.9601 40.136 22.7215 40.3749C22.4867 40.6099 22.1749 40.7418 21.8429 40.746C21.4994 40.7504 21.1764 40.6191 20.9333 40.3766C20.44 39.884 20.4392 39.082 20.9316 38.5884C21.1662 38.3536 21.4782 38.2218 21.8102 38.2174Z" fill="#E5EAFF"/>
<path d="M21.7805 22.8866C21.2654 22.8933 20.7808 22.6964 20.4161 22.3324C19.6761 21.5938 19.6749 20.3906 20.4137 19.6505C20.7656 19.298 21.2337 19.1002 21.7315 19.0939C22.2467 19.0873 22.7313 19.2841 23.0957 19.6479C23.836 20.3868 23.837 21.59 23.0984 22.33C22.7465 22.6826 22.2785 22.8803 21.7805 22.8866Z" fill="#2D3040"/>
<path d="M21.7218 18.4611C21.0848 18.4694 20.4503 18.7168 19.9645 19.2033C18.9779 20.1916 18.9795 21.7927 19.9678 22.7793C20.4699 23.2803 21.1298 23.5265 21.7869 23.5181C22.424 23.5099 23.0585 23.2625 23.5441 22.776C24.5307 21.7877 24.5291 20.1865 23.5408 19.1999C23.0387 18.6989 22.379 18.4527 21.7218 18.4611ZM21.7382 19.7254C22.0815 19.7211 22.4046 19.8521 22.6476 20.0947C23.1409 20.5872 23.1416 21.3894 22.6492 21.8829C22.4145 22.1179 22.1027 22.2496 21.7707 22.2538C21.4272 22.2582 21.1042 22.1269 20.8612 21.8844C20.6221 21.6459 20.4904 21.3285 20.49 20.9908C20.4896 20.653 20.6209 20.3354 20.8594 20.0964C21.0941 19.8614 21.4061 19.7298 21.7382 19.7254Z" fill="#E5EAFF"/>
<path d="M22.2708 21.5113C21.5203 24.8705 22.5443 28.4235 24.9893 30.8639C27.4342 33.3043 30.9893 34.3217 34.347 33.5652C35.0975 30.2059 34.0735 26.6528 31.6285 24.2124C29.7164 22.304 27.1257 21.2656 24.4811 21.2656C23.744 21.2656 23.0026 21.3463 22.2708 21.5113Z" fill="#2D3040"/>
<path d="M21.7461 20.9983C20.8084 24.5673 21.7416 28.5261 24.5418 31.321C27.342 34.1157 31.3021 35.0416 34.8696 34.0974C35.8073 30.5281 34.8739 26.5696 32.074 23.7748C29.274 20.9799 25.3136 20.0539 21.7461 20.9983ZM22.8067 22.0568C25.8349 21.5108 28.9854 22.4781 31.1808 24.6695C33.3763 26.8609 34.3494 30.0096 33.809 33.0389C30.7808 33.5848 27.6301 32.6173 25.4349 30.4261C23.2395 28.2347 22.2662 25.086 22.8067 22.0568Z" fill="#E5EAFF"/>
<path d="M36.2235 35.3295C35.8639 35.6985 35.3822 35.9019 34.867 35.9026C33.8213 35.9034 32.9698 35.0534 32.9688 34.0076C32.9684 33.5096 33.1595 33.0389 33.5071 32.6823C33.8668 32.3134 34.3485 32.1099 34.8635 32.1094C35.9092 32.1085 36.7609 32.9584 36.7619 34.0041C36.7623 34.5023 36.571 34.9729 36.2235 35.3295Z" fill="#2D3040"/>
<path d="M33.0556 32.2482C32.6109 32.7044 32.3372 33.328 32.3379 34.0152C32.3392 35.412 33.4724 36.5429 34.8688 36.5417C35.5782 36.541 36.2187 36.2486 36.6775 35.7779C37.1221 35.3217 37.3958 34.698 37.3953 34.0107C37.3939 32.6141 36.2607 31.483 34.8643 31.4844C34.155 31.4851 33.5144 31.7775 33.0556 32.2482ZM33.9611 33.1307H33.9609C34.2006 32.8846 34.522 32.749 34.8653 32.7487C35.203 32.7483 35.5208 32.8796 35.7596 33.1182C35.9987 33.3567 36.1306 33.6742 36.131 34.0117C36.1311 34.3438 36.0038 34.6578 35.7721 34.8954C35.5323 35.1414 35.2111 35.2771 34.8677 35.2774C34.1706 35.2779 33.6029 34.7113 33.6022 34.0142C33.6018 33.6822 33.7293 33.3684 33.9611 33.1307Z" fill="#E5EAFF"/>
<path d="M23.1112 22.3137C22.7517 22.6827 22.2699 22.8861 21.7547 22.8866C20.709 22.8875 19.8575 22.0376 19.8564 20.9919C19.8561 20.4938 20.0472 20.0231 20.3949 19.6665C20.7543 19.2976 21.2362 19.0941 21.7512 19.0938C22.797 19.0927 23.6485 19.9426 23.6495 20.9883C23.65 21.4864 23.4588 21.9571 23.1112 22.3137Z" fill="#2D3040"/>
<path d="M19.9434 19.2247C19.4987 19.681 19.225 20.3046 19.2256 20.992C19.227 22.3886 20.36 23.5195 21.7566 23.5184C22.4658 23.5176 23.1065 23.225 23.5653 22.7544C24.0099 22.2983 24.2836 21.6746 24.2829 20.9872C24.2817 19.5907 23.1485 18.4597 21.7519 18.4609C21.0428 18.4617 20.4022 18.7542 19.9434 19.2247ZM20.8489 20.1071C21.0887 19.8614 21.4098 19.7256 21.7531 19.7252C22.4503 19.7245 23.0179 20.2913 23.0188 20.9885C23.019 21.3206 22.8916 21.6343 22.6599 21.872C22.4202 22.118 22.0989 22.2536 21.7554 22.2542C21.4176 22.2543 21.1 22.1231 20.8612 21.8846C20.622 21.6459 20.4902 21.3285 20.49 20.9907C20.4897 20.6588 20.6172 20.345 20.8489 20.1071Z" fill="#E5EAFF"/>
<path d="M31.0134 16.3047C27.5591 16.3077 24.3258 18.1018 22.4863 21.0115C24.3312 23.9173 27.5678 25.7056 31.0221 25.7024C34.4766 25.6991 37.7097 23.9049 39.5492 20.9956C37.706 18.0922 34.4738 16.3047 31.0228 16.3047H31.0134Z" fill="#2D3040"/>
<path d="M21.7451 21.0036C23.6058 24.1904 27.0647 26.3297 31.021 26.3261C34.9774 26.3224 38.4324 24.1767 40.2873 20.9865C38.4264 17.7996 34.9674 15.6604 31.0113 15.6641C27.055 15.6677 23.5998 17.8134 21.7451 21.0036ZM23.2435 21.0022C24.9986 18.4747 27.9105 16.9312 31.0125 16.9283C34.1143 16.9254 37.0289 18.4637 38.7888 20.9879C37.0335 23.5153 34.1217 25.0588 31.02 25.0618C27.918 25.0648 25.0034 23.5264 23.2435 21.0022Z" fill="#E5EAFF"/>
<path d="M42.121 20.9101C42.1276 21.4254 41.9308 21.9098 41.5668 22.2745C40.8282 23.0145 39.625 23.0156 38.8848 22.2769C38.5324 21.925 38.3346 21.4569 38.3283 20.9591C38.3217 20.444 38.5185 19.9594 38.8823 19.5949C39.6211 18.8547 40.8243 18.8537 41.5643 19.5925C41.9169 19.9442 42.1147 20.4123 42.121 20.9101Z" fill="#2D3040"/>
<path d="M37.6965 20.9597C37.7047 21.5967 37.952 22.2312 38.4385 22.7167C39.427 23.7033 41.0281 23.7019 42.0147 22.7134C42.5157 22.2116 42.762 21.5519 42.7534 20.8944C42.7453 20.2575 42.4977 19.623 42.0114 19.1374C41.0229 18.1508 39.4219 18.1524 38.4353 19.1407C37.9343 19.6428 37.6879 20.3024 37.6965 20.9597ZM38.9606 20.9434C38.9563 20.5999 39.0875 20.2769 39.33 20.0338C39.5687 19.7948 39.886 19.663 40.2237 19.6627C40.5614 19.6623 40.8792 19.7936 41.1181 20.0321C41.3531 20.2669 41.485 20.5787 41.4892 20.9107C41.4936 21.2542 41.3624 21.5772 41.1198 21.8203C40.6273 22.3136 39.8253 22.3144 39.3318 21.822C39.0968 21.5874 38.965 21.2754 38.9606 20.9434Z" fill="#E5EAFF"/>
<path d="M23.6493 20.9648C23.656 21.48 23.4591 21.9645 23.0951 22.3292C22.3565 23.0692 21.1533 23.0705 20.4132 22.3316C20.0606 21.9798 19.8629 21.5117 19.8566 21.0138C19.85 20.4986 20.0468 20.0141 20.4106 19.6496C21.1494 18.9094 22.3526 18.9084 23.0927 19.647C23.4453 19.9989 23.643 20.4668 23.6493 20.9648Z" fill="#2D3040"/>
<path d="M19.2268 21.03C19.235 21.667 19.4824 22.3015 19.9689 22.7872C20.9572 23.7738 22.5584 23.7722 23.545 22.7839C24.046 22.2819 24.2922 21.622 24.2838 20.9649C24.2756 20.3278 24.0281 19.6933 23.5417 19.2077C22.5531 18.2211 20.9521 18.2227 19.9656 19.211C19.4646 19.7131 19.2184 20.3727 19.2268 21.03ZM20.4909 21.0136C20.4867 20.6703 20.6178 20.3472 20.8603 20.1041C21.3529 19.6109 22.155 19.6102 22.6485 20.1026C22.8835 20.3373 23.0153 20.649 23.0195 20.981C23.0239 21.3245 22.8926 21.6475 22.6501 21.8906C22.4116 22.1296 22.0941 22.2614 21.7564 22.2618C21.4187 22.2621 21.1011 22.1309 20.8621 21.8924C20.627 21.6577 20.4953 21.3457 20.4909 21.0136Z" fill="#E5EAFF"/>
<path d="M24.9713 11.1242C22.5309 13.5689 21.5132 17.1238 22.27 20.4818C25.6293 21.2322 29.1824 20.2081 31.6226 17.7632C34.0629 15.3183 35.0804 11.7634 34.324 8.40555C33.5979 8.24335 32.863 8.16406 32.1321 8.16406C29.481 8.16406 26.8843 9.20752 24.9713 11.1242Z" fill="#2D3040"/>
<path d="M21.7473 21.0072C25.3164 21.945 29.2752 21.0118 32.0701 18.2116C34.8648 15.4114 35.7907 11.4513 34.8464 7.8838C31.2772 6.94605 27.3186 7.87943 24.5239 10.6794C21.729 13.4794 20.8029 17.4397 21.7473 21.0072ZM22.8058 19.9466C22.2598 16.9184 23.2272 13.768 25.4186 11.5726C27.61 9.37717 30.7587 8.40406 33.7879 8.94444C34.3339 11.9726 33.3664 15.1233 31.1752 17.3185C28.9838 19.5139 25.835 20.4871 22.8058 19.9466Z" fill="#E5EAFF"/>
<path d="M36.0903 6.52282C36.4593 6.88244 36.6626 7.36419 36.6633 7.87933C36.6642 8.92506 35.8141 9.77655 34.7684 9.7776C34.2704 9.77797 33.7997 9.58689 33.443 9.23915C33.0742 8.87957 32.8707 8.39782 32.8701 7.88285C32.8692 6.83713 33.7192 5.98543 34.7649 5.98438C35.2631 5.98404 35.7337 6.17529 36.0903 6.52282Z" fill="#2D3040"/>
<path d="M32.9992 9.69125C33.4554 10.1359 34.079 10.4096 34.7662 10.4089C36.163 10.4077 37.2939 9.27443 37.2927 7.87802C37.292 7.16865 36.9996 6.52819 36.5289 6.06937C36.0727 5.62471 35.449 5.35102 34.7617 5.35156C33.3651 5.35295 32.234 6.4862 32.2354 7.8826C32.2361 8.59181 32.5285 9.23243 32.9992 9.69125ZM33.8817 8.78571V8.78588C33.6356 8.54616 33.5 8.22488 33.4997 7.88155C33.4993 7.54381 33.6305 7.22602 33.8692 6.98718C34.1078 6.74813 34.4252 6.61618 34.7628 6.61584C35.0949 6.61568 35.4088 6.74306 35.6464 6.97475C35.8925 7.21447 36.0281 7.53575 36.0284 7.87908C36.029 8.57623 35.4623 9.1439 34.7652 9.14462C34.4332 9.14495 34.1195 9.01758 33.8817 8.78571Z" fill="#E5EAFF"/>
<path d="M23.0764 19.632C23.4455 19.9916 23.6488 20.4734 23.6494 20.9885C23.6502 22.0343 22.8003 22.8858 21.7546 22.8868C21.2566 22.8871 20.7859 22.6961 20.4292 22.3484C20.0604 21.989 19.8568 21.507 19.8564 20.992C19.8554 19.9463 20.7054 19.0948 21.7511 19.0938C22.2491 19.0932 22.7198 19.2845 23.0764 19.632Z" fill="#2D3040"/>
<path d="M19.9904 22.8083C20.4466 23.2529 21.0702 23.5266 21.7576 23.5261C23.1541 23.5247 24.2851 22.3917 24.2841 20.9951C24.2832 20.2858 23.9906 19.6452 23.5201 19.1864C23.0639 18.7417 22.4402 18.4681 21.7529 18.4688C20.3562 18.47 19.2253 19.6032 19.2266 20.9998C19.2272 21.7088 19.5198 22.3495 19.9904 22.8083ZM20.8726 21.9027C20.627 21.663 20.4912 21.3419 20.4909 20.9986C20.4901 20.3014 21.0569 19.7337 21.7541 19.7329C22.0862 19.7327 22.4 19.8601 22.6376 20.0918C22.8836 20.3315 23.0192 20.6528 23.0198 20.9963C23.02 21.334 22.8887 21.6516 22.6502 21.8905C22.4115 22.1297 22.0941 22.2615 21.7563 22.2616C21.4244 22.262 21.1106 22.1344 20.8726 21.9027Z" fill="#E5EAFF"/>
<path d="M17.0479 11.7387C17.051 15.1931 18.845 18.4262 21.7545 20.2657C24.6606 18.421 26.4488 15.1844 26.4455 11.7299C26.4425 8.27567 24.6481 5.04243 21.7388 3.20312C18.8327 5.04785 17.0447 8.2844 17.0479 11.7387Z" fill="#2D3040"/>
<path d="M21.7566 21.0185C24.9433 19.1578 27.0828 15.6988 27.0791 11.7425C27.0754 7.78621 24.9297 4.33128 21.7395 2.47656C18.5526 4.3372 16.4133 7.79621 16.417 11.7523C16.4207 15.7086 18.5664 19.1638 21.7566 21.0185ZM21.7553 19.52C19.2277 17.7649 17.6841 14.8531 17.6813 11.7513C17.6783 8.64925 19.2167 5.73465 21.7409 3.97481C24.2682 5.73012 25.8118 8.64191 25.8148 11.7438C25.8178 14.8456 24.2795 17.7602 21.7553 19.52Z" fill="#E5EAFF"/>
<path d="M21.6611 0.632977C22.1764 0.626299 22.6608 0.82318 23.0255 1.18713C23.7655 1.92577 23.7665 3.12899 23.0279 3.86902C22.676 4.22163 22.2079 4.41935 21.7101 4.42565C21.1949 4.43229 20.7104 4.23545 20.3459 3.87163C19.6057 3.13285 19.6046 1.92964 20.3434 1.18961C20.6951 0.837 21.1633 0.639277 21.6611 0.632977Z" fill="#2D3040"/>
<path d="M21.7165 5.057C22.3535 5.04881 22.988 4.80154 23.4736 4.31508C24.4602 3.32655 24.4588 1.72542 23.4703 0.738862C22.9684 0.237836 22.3087 -0.00835132 21.6513 0.000216091C21.0143 0.00827954 20.3798 0.255895 19.8942 0.742348C18.9076 1.73067 18.9092 3.33164 19.8975 4.31824C20.3996 4.81922 21.0593 5.06561 21.7165 5.057ZM21.7003 3.79289C21.3568 3.7973 21.0337 3.66606 20.7907 3.42353C20.5516 3.18481 20.4199 2.86757 20.4195 2.52983C20.4192 2.19213 20.5504 1.87434 20.7889 1.6355C21.0238 1.40048 21.3356 1.26853 21.6675 1.26433C22.011 1.25996 22.3341 1.3912 22.5771 1.63374C23.0704 2.12632 23.0713 2.9283 22.5789 3.42193C22.3442 3.65678 22.0322 3.78852 21.7003 3.79289Z" fill="#E5EAFF"/>
<path d="M21.7314 19.0939C22.2466 19.0872 22.7312 19.2841 23.0958 19.6481C23.8359 20.3867 23.8371 21.5899 23.0983 22.33C22.7464 22.6826 22.2783 22.8803 21.7804 22.8866C21.2653 22.8932 20.7807 22.6964 20.4162 22.3326C19.676 21.5938 19.675 20.3906 20.4136 19.6505C20.7655 19.2979 21.2334 19.1002 21.7314 19.0939Z" fill="#2D3040"/>
<path d="M21.7878 23.526C22.4248 23.5177 23.0593 23.2703 23.5451 22.7838C24.5316 21.7955 24.5301 20.1943 23.5417 19.2078C23.0397 18.7068 22.3798 18.4606 21.7227 18.469C21.0856 18.4772 20.4511 18.7246 19.9655 19.2111C18.9789 20.1994 18.9805 21.8005 19.9688 22.7871C20.4709 23.2881 21.1306 23.5344 21.7878 23.526ZM21.7714 22.2616C21.428 22.266 21.105 22.135 20.8619 21.8924C20.3686 21.3999 20.368 20.5977 20.8604 20.1042C21.095 19.8692 21.4069 19.7374 21.7388 19.7332C22.0823 19.7289 22.4054 19.8601 22.6484 20.1026C22.8874 20.3411 23.0192 20.6586 23.0196 20.9963C23.0199 21.334 22.8887 21.6516 22.6502 21.8907C22.4155 22.1257 22.1035 22.2573 21.7714 22.2616Z" fill="#E5EAFF"/>
<path d="M10.2237 8.25793L9.56543 8.91624L20.7105 20.0614L21.3797 19.3924C21.7069 16.3758 20.6564 13.3188 18.4783 11.1446C16.5727 9.24277 14.0411 8.19531 11.3494 8.19531C10.9729 8.19531 10.597 8.21631 10.2237 8.25793Z" fill="#2D3040"/>
<mask id="mask0_1097_303" style="mask-type:luminance" maskUnits="userSpaceOnUse" x="9" y="4" width="17" height="17">
<path d="M9.56348 8.896L20.7087 20.0412L25.433 15.3169L14.2878 4.17188L9.56348 8.896Z" fill="white"/>
</mask>
<g mask="url(#mask0_1097_303)">
<path d="M11.35 7.55469C10.4243 7.55469 9.4982 7.67404 8.5977 7.91238C7.65994 11.4814 8.59316 15.4402 11.3932 18.2351C13.4864 20.3245 16.2274 21.3691 18.9686 21.3691C19.8943 21.3691 20.8205 21.2498 21.721 21.0114C22.6588 17.4422 21.7256 13.4836 18.9256 10.6889C16.8324 8.59954 14.0912 7.55469 11.35 7.55469ZM11.3503 7.55469V8.81918H11.3504C13.8733 8.81918 16.2461 9.80086 18.0324 11.5836C20.2276 13.775 21.2009 16.9239 20.6606 19.9531C20.1032 20.0539 19.5368 20.1049 18.9686 20.1049C16.4456 20.1049 14.0726 19.123 12.2865 17.3402C10.0911 15.1488 9.11779 11.9999 9.65833 8.97071C10.2155 8.86991 10.7818 8.81918 11.35 8.81918L11.3503 7.55469Z" fill="#E5EAFF"/>
</g>
<path d="M8.64536 9.89462C7.60068 9.89462 6.74991 9.04468 6.74902 7.99984C6.74797 6.95411 7.59807 6.10261 8.64381 6.10156C9.69025 6.10156 10.541 6.9515 10.5419 7.99635C10.543 9.04208 9.69286 9.89357 8.64713 9.89462H8.64536Z" fill="#2D3040"/>
<path d="M8.64206 5.46875H8.63974C7.24317 5.46997 6.11206 6.60322 6.11328 7.9998C6.11467 9.39549 7.24649 10.5261 8.64206 10.5261H8.64434C10.0409 10.5249 11.172 9.39162 11.1708 7.99505C11.1694 6.59936 10.0376 5.46875 8.64206 5.46875ZM8.64206 6.73303C9.3385 6.73303 9.9058 7.29966 9.90635 7.99626C9.90702 8.69342 9.34044 9.26109 8.64206 9.26181C7.94558 9.26181 7.37828 8.69501 7.37773 7.99857C7.3774 7.66083 7.50864 7.34321 7.74714 7.1042C7.98585 6.86516 8.30309 6.73341 8.63974 6.73303H8.64206Z" fill="#E5EAFF"/>
<path d="M21.7528 22.8868C20.7081 22.8868 19.8573 22.0369 19.8564 20.992C19.8559 20.4854 20.0526 20.0089 20.4106 19.6506C20.7685 19.292 21.2445 19.0943 21.751 19.0938C22.7976 19.0938 23.6484 19.9438 23.6493 20.9885C23.6504 22.0342 22.8003 22.8859 21.7545 22.8868H21.7528Z" fill="#2D3040"/>
<path d="M21.7553 18.4688H21.7529C20.3563 18.4701 19.2253 19.6032 19.2266 20.9998C19.2279 22.3955 20.3598 23.5261 21.7553 23.5261H21.7576C23.1542 23.5249 24.2853 22.3916 24.2839 20.9952C24.2827 19.5994 23.1509 18.4688 21.7553 18.4688ZM21.7553 19.733C22.4518 19.733 23.0189 20.2998 23.0196 20.9963C23.02 21.334 22.8887 21.6516 22.6501 21.8906C22.4116 22.1297 22.0941 22.2614 21.7553 22.2618C21.0587 22.2618 20.4916 21.695 20.4909 20.9986C20.4903 20.3014 21.0569 19.7337 21.7529 19.733H21.7553Z" fill="#E5EAFF"/>
<path d="M17.3701 19.4962H19.8487C19.1246 18.7296 18.2867 18.0833 17.3701 17.5781V19.4962Z" fill="#2D3040"/>
<mask id="mask1_1097_303" style="mask-type:luminance" maskUnits="userSpaceOnUse" x="17" y="16" width="4" height="4">
<path d="M20.3789 16.6016H17.3682V19.4726H20.3789V16.6016Z" fill="white"/>
</mask>
<g mask="url(#mask1_1097_303)">
<path d="M12.499 15.6641H12.4889C8.53255 15.6678 5.07755 17.8134 3.22266 21.0037C5.08175 24.1878 8.53636 26.3261 12.4885 26.3261H12.4988C16.455 26.3224 19.9101 24.1767 21.7649 20.9865C19.9058 17.8024 16.4511 15.6641 12.499 15.6641ZM12.499 16.9283C15.5973 16.9283 18.5085 18.4665 20.2664 20.9879C18.5113 23.5153 15.5994 25.0588 12.4976 25.0618H12.4885C9.39034 25.0618 6.47922 23.5237 4.72109 21.0022C6.47641 18.4749 9.38824 16.9313 12.491 16.9283H12.499Z" fill="#E5EAFF"/>
</g>
<path d="M58.849 16.01H58.761C58.541 16.626 58.277 17.3593 57.969 18.21C57.6756 19.0607 57.3676 19.9407 57.045 20.85C56.737 21.7447 56.4436 22.5807 56.165 23.358L56.055 23.688C55.967 23.952 55.857 24.282 55.725 24.678C55.593 25.074 55.4536 25.492 55.307 25.932C55.1603 26.3573 55.021 26.7607 54.889 27.142C54.757 27.5087 54.6543 27.8093 54.581 28.044C54.4783 28.088 54.3683 28.1173 54.251 28.132C54.1483 28.1613 54.0163 28.176 53.855 28.176C53.6203 28.176 53.4076 28.1173 53.217 28C53.041 27.868 52.953 27.6627 52.953 27.384C52.953 27.252 52.975 27.12 53.019 26.988C53.063 26.8413 53.1143 26.6873 53.173 26.526C53.349 26.0273 53.5616 25.4187 53.811 24.7C54.075 23.9813 54.361 23.1967 54.669 22.346C54.977 21.4953 55.2996 20.6227 55.637 19.728C55.9743 18.8333 56.3043 17.9607 56.627 17.11C56.9496 16.2593 57.2503 15.482 57.529 14.778C57.6463 14.7193 57.8223 14.6607 58.057 14.602C58.2916 14.5433 58.5336 14.514 58.783 14.514C59.0763 14.514 59.355 14.558 59.619 14.646C59.8976 14.734 60.0736 14.8807 60.147 15.086C60.499 15.9367 60.873 16.9047 61.269 17.99C61.6796 19.0607 62.0903 20.1827 62.501 21.356C62.9116 22.5147 63.3003 23.644 63.667 24.744C64.0483 25.844 64.3856 26.8413 64.679 27.736C64.5763 27.868 64.437 27.9707 64.261 28.044C64.0996 28.132 63.9163 28.176 63.711 28.176C63.4323 28.176 63.2196 28.1173 63.073 28C62.9263 27.868 62.8016 27.6553 62.699 27.362L61.489 23.776L61.313 23.16C61.0196 22.2653 60.7116 21.3633 60.389 20.454C60.081 19.5447 59.7876 18.7013 59.509 17.924C59.245 17.1467 59.025 16.5087 58.849 16.01ZM55.197 24.436L55.769 22.962H61.907L62.259 24.436H55.197ZM71.4945 17.55C72.4038 17.55 73.2178 17.748 73.9365 18.144C74.6698 18.5253 75.2418 19.112 75.6525 19.904C76.0778 20.696 76.2905 21.7007 76.2905 22.918C76.2905 24.15 76.0705 25.162 75.6305 25.954C75.2052 26.746 74.6112 27.3327 73.8485 27.714C73.0858 28.0953 72.1985 28.286 71.1865 28.286C70.4678 28.286 69.8152 28.198 69.2285 28.022C68.6565 27.846 68.1872 27.6553 67.8205 27.45C67.5125 27.2447 67.2998 27.054 67.1825 26.878C67.0652 26.702 67.0065 26.46 67.0065 26.152V18.826H68.7665V26.152C68.9865 26.3133 69.3092 26.4673 69.7345 26.614C70.1598 26.7607 70.6438 26.834 71.1865 26.834C72.1838 26.834 72.9832 26.5187 73.5845 25.888C74.2005 25.2573 74.5085 24.2673 74.5085 22.918C74.5085 21.554 74.2005 20.564 73.5845 19.948C72.9685 19.3173 72.1838 19.002 71.2305 19.002C70.6438 19.002 70.1232 19.1193 69.6685 19.354C69.2138 19.574 68.8398 19.8307 68.5465 20.124L68.2165 18.694C68.5392 18.4447 68.9718 18.1953 69.5145 17.946C70.0572 17.682 70.7172 17.55 71.4945 17.55ZM68.7665 19.178H67.0065V13.744C67.0798 13.7147 67.1898 13.6853 67.3365 13.656C67.4978 13.612 67.6665 13.59 67.8425 13.59C68.1505 13.59 68.3778 13.656 68.5245 13.788C68.6858 13.9053 68.7665 14.1033 68.7665 14.382V19.178ZM80.8254 25.734C80.5761 25.2647 80.2754 24.634 79.9234 23.842C79.5714 23.0353 79.2048 22.1407 78.8234 21.158C78.4568 20.1607 78.1048 19.1487 77.7674 18.122C77.8701 17.9753 78.0021 17.858 78.1634 17.77C78.3394 17.682 78.5228 17.638 78.7134 17.638C78.9628 17.638 79.1681 17.704 79.3294 17.836C79.4908 17.968 79.6228 18.188 79.7254 18.496C80.1654 19.728 80.6274 20.9527 81.1114 22.17C81.5954 23.3873 82.1308 24.6487 82.7174 25.954H82.8054C83.1134 25.338 83.4361 24.568 83.7734 23.644C84.1108 22.72 84.4334 21.7447 84.7414 20.718C85.0494 19.6913 85.3061 18.7233 85.5114 17.814C85.6141 17.77 85.7241 17.7333 85.8414 17.704C85.9734 17.66 86.1128 17.638 86.2594 17.638C86.5088 17.638 86.7141 17.704 86.8754 17.836C87.0368 17.9533 87.1174 18.1367 87.1174 18.386C87.1174 18.6207 87.0514 19.0167 86.9194 19.574C86.7874 20.1167 86.6041 20.7547 86.3694 21.488C86.1494 22.2067 85.8854 22.9767 85.5774 23.798C85.2841 24.6047 84.9614 25.404 84.6094 26.196C84.2721 26.9733 83.9274 27.6773 83.5754 28.308C82.9008 29.5547 82.2848 30.508 81.7274 31.168C81.1701 31.8427 80.6568 32.18 80.1874 32.18C79.8501 32.18 79.5861 32.092 79.3954 31.916C79.2194 31.74 79.1094 31.5347 79.0654 31.3C79.3881 31.0213 79.7474 30.6473 80.1434 30.178C80.5541 29.7233 80.9428 29.2247 81.3094 28.682C81.6908 28.154 81.9988 27.648 82.2334 27.164C81.9841 27.0907 81.7494 26.9587 81.5294 26.768C81.3241 26.5773 81.0894 26.2327 80.8254 25.734ZM92.2271 23.358L91.1271 22.5L96.1431 17.638C96.4951 17.6527 96.7664 17.7407 96.9571 17.902C97.1624 18.0487 97.2651 18.2467 97.2651 18.496C97.2651 18.7013 97.1991 18.8847 97.0671 19.046C96.9498 19.2073 96.7738 19.3833 96.5391 19.574L92.2271 23.358ZM91.0831 22.786L92.3151 22.06L97.9031 27.076C97.8738 27.3987 97.7711 27.6553 97.5951 27.846C97.4338 28.0367 97.2138 28.132 96.9351 28.132C96.7151 28.132 96.5098 28.0733 96.3191 27.956C96.1431 27.8387 95.9598 27.6847 95.7691 27.494L91.0831 22.786ZM89.5651 22.104L91.3251 22.368V27.956C91.2518 27.9853 91.1418 28.0147 90.9951 28.044C90.8484 28.088 90.6871 28.11 90.5111 28.11C90.2031 28.11 89.9684 28.0513 89.8071 27.934C89.6458 27.802 89.5651 27.5967 89.5651 27.318V22.104ZM91.3251 23.226L89.5651 22.962V13.744C89.6384 13.7147 89.7484 13.6853 89.8951 13.656C90.0564 13.612 90.2251 13.59 90.4011 13.59C90.7091 13.59 90.9364 13.656 91.0831 13.788C91.2444 13.9053 91.3251 14.1033 91.3251 14.382V23.226ZM101.945 25.734C101.695 25.2647 101.395 24.634 101.043 23.842C100.691 23.0353 100.324 22.1407 99.9426 21.158C99.5759 20.1607 99.2239 19.1487 98.8866 18.122C98.9892 17.9753 99.1212 17.858 99.2826 17.77C99.4586 17.682 99.6419 17.638 99.8326 17.638C100.082 17.638 100.287 17.704 100.449 17.836C100.61 17.968 100.742 18.188 100.845 18.496C101.285 19.728 101.747 20.9527 102.231 22.17C102.715 23.3873 103.25 24.6487 103.837 25.954H103.925C104.233 25.338 104.555 24.568 104.893 23.644C105.23 22.72 105.553 21.7447 105.861 20.718C106.169 19.6913 106.425 18.7233 106.631 17.814C106.733 17.77 106.843 17.7333 106.961 17.704C107.093 17.66 107.232 17.638 107.379 17.638C107.628 17.638 107.833 17.704 107.995 17.836C108.156 17.9533 108.237 18.1367 108.237 18.386C108.237 18.6207 108.171 19.0167 108.039 19.574C107.907 20.1167 107.723 20.7547 107.489 21.488C107.269 22.2067 107.005 22.9767 106.697 23.798C106.403 24.6047 106.081 25.404 105.729 26.196C105.391 26.9733 105.047 27.6773 104.695 28.308C104.02 29.5547 103.404 30.508 102.847 31.168C102.289 31.8427 101.776 32.18 101.307 32.18C100.969 32.18 100.705 32.092 100.515 31.916C100.339 31.74 100.229 31.5347 100.185 31.3C100.507 31.0213 100.867 30.6473 101.263 30.178C101.673 29.7233 102.062 29.2247 102.429 28.682C102.81 28.154 103.118 27.648 103.353 27.164C103.103 27.0907 102.869 26.9587 102.649 26.768C102.443 26.5773 102.209 26.2327 101.945 25.734Z" fill="#E5EAFF"/>
</svg>
