<svg width="146" height="40" viewBox="0 0 146 40" fill="none" xmlns="http://www.w3.org/2000/svg">
<path d="M54.84 27C54.5867 27 54.3733 26.9133 54.2 26.74C54.0267 26.5667 53.94 26.3533 53.94 26.1V13.96C53.94 13.7067 54.0267 13.4933 54.2 13.32C54.3733 13.1333 54.5867 13.04 54.84 13.04H59.56C61.0267 13.04 62.14 13.3733 62.9 14.04C63.66 14.7067 64.04 15.58 64.04 16.66C64.04 17.4867 63.84 18.1533 63.44 18.66C63.04 19.1533 62.5867 19.5133 62.08 19.74C62.56 19.8867 63.0067 20.1067 63.42 20.4C63.8467 20.6933 64.1867 21.06 64.44 21.5C64.6933 21.94 64.82 22.4667 64.82 23.08C64.82 23.8533 64.6467 24.54 64.3 25.14C63.9667 25.7267 63.42 26.1867 62.66 26.52C61.9133 26.84 60.92 27 59.68 27H54.84ZM55.76 19.08H59.08C59.92 19.08 60.5733 18.98 61.04 18.78C61.5067 18.58 61.8333 18.3067 62.02 17.96C62.2067 17.6133 62.3 17.2267 62.3 16.8C62.3 16.1733 62.0467 15.6733 61.54 15.3C61.0333 14.9267 60.3267 14.74 59.42 14.74H55.76V19.08ZM55.76 25.3H59.5C60.42 25.3 61.1333 25.2067 61.64 25.02C62.16 24.82 62.5267 24.5467 62.74 24.2C62.9533 23.8533 63.06 23.4533 63.06 23C63.06 22.2133 62.7533 21.64 62.14 21.28C61.54 20.9067 60.6667 20.72 59.52 20.72H55.76V25.3ZM75.9872 27.2C74.5605 27.2 73.3272 26.8933 72.2872 26.28C71.2472 25.6667 70.4405 24.82 69.8672 23.74C69.2939 22.66 68.9939 21.42 68.9672 20.02C68.9939 18.62 69.2939 17.38 69.8672 16.3C70.4405 15.22 71.2472 14.3733 72.2872 13.76C73.3272 13.1467 74.5605 12.84 75.9872 12.84C77.4139 12.84 78.6472 13.1467 79.6872 13.76C80.7272 14.3733 81.5339 15.22 82.1072 16.3C82.6805 17.38 82.9805 18.62 83.0072 20.02C82.9805 21.42 82.6805 22.66 82.1072 23.74C81.5339 24.82 80.7272 25.6667 79.6872 26.28C78.6472 26.8933 77.4139 27.2 75.9872 27.2ZM75.9872 25.5C77.0939 25.5 78.0339 25.26 78.8072 24.78C79.5805 24.2867 80.1672 23.6267 80.5672 22.8C80.9805 21.9733 81.1872 21.0467 81.1872 20.02C81.1872 18.9933 80.9805 18.0667 80.5672 17.24C80.1672 16.4133 79.5805 15.76 78.8072 15.28C78.0339 14.7867 77.0939 14.54 75.9872 14.54C74.8805 14.54 73.9405 14.7867 73.1672 15.28C72.3939 15.76 71.8005 16.4133 71.3872 17.24C70.9872 18.0667 70.7872 18.9933 70.7872 20.02C70.7872 21.0467 70.9872 21.9733 71.3872 22.8C71.8005 23.6267 72.3939 24.2867 73.1672 24.78C73.9405 25.26 74.8805 25.5 75.9872 25.5ZM89.2977 27C88.951 27 88.651 26.88 88.3977 26.64C88.1577 26.3867 88.0377 26.0867 88.0377 25.74V13.86C88.0377 13.6067 88.1243 13.3933 88.2977 13.22C88.471 13.0333 88.6843 12.94 88.9377 12.94C89.191 12.94 89.4043 13.0333 89.5777 13.22C89.7643 13.3933 89.8577 13.6067 89.8577 13.86V25.18H96.3977C96.651 25.18 96.8643 25.2733 97.0377 25.46C97.2243 25.6333 97.3177 25.8467 97.3177 26.1C97.3177 26.3533 97.2243 26.5667 97.0377 26.74C96.8643 26.9133 96.651 27 96.3977 27H89.2977ZM101.13 27.1C100.85 27.1 100.63 27.0133 100.47 26.84C100.31 26.6667 100.23 26.4533 100.23 26.2C100.23 26.0933 100.264 25.96 100.33 25.8L105.43 13.76C105.524 13.5467 105.664 13.36 105.85 13.2C106.05 13.0267 106.297 12.94 106.59 12.94H106.79C107.097 12.94 107.344 13.0267 107.53 13.2C107.717 13.36 107.857 13.5467 107.95 13.76L113.05 25.8C113.117 25.96 113.15 26.0933 113.15 26.2C113.15 26.4533 113.07 26.6667 112.91 26.84C112.75 27.0133 112.53 27.1 112.25 27.1C111.837 27.1 111.55 26.9133 111.39 26.54L110.09 23.42H103.29L101.99 26.54C101.83 26.9133 101.544 27.1 101.13 27.1ZM103.99 21.76H109.39L106.69 15.26L103.99 21.76ZM125.248 27.1C124.968 27.1 124.748 27.0133 124.588 26.84C124.428 26.6667 124.348 26.4533 124.348 26.2C124.348 26.0933 124.381 25.96 124.448 25.8L129.548 13.76C129.641 13.5467 129.781 13.36 129.968 13.2C130.168 13.0267 130.414 12.94 130.708 12.94H130.908C131.214 12.94 131.461 13.0267 131.648 13.2C131.834 13.36 131.974 13.5467 132.068 13.76L137.168 25.8C137.234 25.96 137.268 26.0933 137.268 26.2C137.268 26.4533 137.188 26.6667 137.028 26.84C136.868 27.0133 136.648 27.1 136.368 27.1C135.954 27.1 135.668 26.9133 135.508 26.54L134.208 23.42H127.408L126.108 26.54C125.948 26.9133 125.661 27.1 125.248 27.1ZM128.108 21.76H133.508L130.808 15.26L128.108 21.76ZM143.11 27.1C142.856 27.1 142.643 27.0133 142.47 26.84C142.296 26.6667 142.21 26.4533 142.21 26.2V13.86C142.21 13.6067 142.296 13.3933 142.47 13.22C142.643 13.0333 142.856 12.94 143.11 12.94C143.363 12.94 143.576 13.0333 143.75 13.22C143.936 13.3933 144.03 13.6067 144.03 13.86V26.2C144.03 26.4533 143.936 26.6667 143.75 26.84C143.576 27.0133 143.363 27.1 143.11 27.1Z" fill="#E5EAFF"/>
<path d="M15.351 20.6537V19.2947V17.6232V11.2511C15.351 10.7831 15.7342 10.3998 16.2022 10.3998H20.5048C22.676 10.3998 24.5657 11.9932 24.8001 14.031C24.9409 15.2257 24.5812 16.3813 23.7852 17.2716C23.6371 17.4433 23.4654 17.5915 23.2929 17.7322C22.5589 18.3182 21.6531 18.6535 20.7001 18.6535H18.4589C18.2791 18.6535 18.1229 18.7007 17.9828 18.7707C17.733 18.8879 17.5222 19.0677 17.366 19.2239L15.8824 20.8792C15.7497 21.0119 15.6171 20.9883 15.5463 20.9574C15.4837 20.9353 15.351 20.8571 15.351 20.6537ZM23.5096 19.0227C22.6753 19.5453 21.7003 19.8342 20.6935 19.8342H18.4626C18.4707 19.8342 18.4 19.8578 18.2445 20.0214L16.7624 21.6752C16.458 21.9951 16.0681 22.1587 15.6627 22.1587C15.561 22.1587 15.452 22.1432 15.351 22.1196V29.9119C15.351 30.1772 15.5463 30.2782 15.6082 30.3018C15.6863 30.3328 15.8735 30.3799 16.0526 30.2001L17.691 28.3517C17.9018 28.1335 18.2997 27.7201 18.8532 27.7201H21.9892C23.2914 27.7201 24.4928 27.2211 25.3668 26.3161C26.2011 25.4501 26.6382 24.296 26.5991 23.0711C26.5438 21.2227 25.257 19.6315 23.5096 19.0227ZM40 20C40 31.0469 31.0469 40 20 40C8.95309 40 0 31.0469 0 20C0 8.95309 8.95309 0 20 0C31.0469 0 40 8.95309 40 20ZM27.8314 23.0025C27.7614 20.8785 26.4414 19.0353 24.5827 18.1288L24.6999 18.0116C25.7073 16.8788 26.1834 15.3562 26.0117 13.8335C25.6992 11.1626 23.3408 9.14766 20.5292 9.14766H16.2266C15.0916 9.14766 14.1718 10.0674 14.1718 11.2024V19.246V20.6051V29.8994C14.1718 30.3445 14.3435 30.7506 14.6405 31.0476C14.7887 31.1958 14.9685 31.3211 15.1793 31.3992C15.3746 31.4773 15.5773 31.5164 15.7807 31.5164C16.2103 31.5164 16.6238 31.3366 16.9525 31.0012L18.5923 29.1499C18.7876 28.9465 18.8658 28.9074 18.8731 28.9H22.0127C23.6452 28.9 25.1524 28.2751 26.2616 27.1268C27.3236 26.0169 27.8859 24.5569 27.8314 23.0025Z" fill="#E5EAFF"/>
</svg>
