<svg width="225" height="34" viewBox="0 0 225 34" fill="none" xmlns="http://www.w3.org/2000/svg">
<path d="M4.51996 10.9237L12.76 29.2038L21 10.9237C21.28 10.2437 21.96 9.84375 22.68 9.84375H22.72C23.76 9.84375 24.56 10.6838 24.56 11.6838V31.2838C24.56 31.9237 24.04 32.4438 23.4 32.4438C22.76 32.4438 22.24 31.9237 22.24 31.2838V23.2038L22.44 12.6838L14 31.6438C13.8 32.1238 13.32 32.4438 12.76 32.4438C12.24 32.4438 11.76 32.1238 11.52 31.6438L3.07996 12.8037L3.27996 23.2038V31.3238C3.27996 31.9638 2.75996 32.4837 2.11996 32.4837C1.47996 32.4837 0.959961 31.9638 0.959961 31.3238V11.7237C0.959961 10.6837 1.79996 9.88375 2.79996 9.88375C3.55996 9.84375 4.23996 10.2837 4.51996 10.9237Z" fill="#E5EAFF"/>
<path d="M40.8402 22.1569L47.6802 10.3969C47.8802 10.0369 48.2402 9.83688 48.6402 9.83688C49.5202 9.83688 50.0802 10.7969 49.6002 11.5569L41.9202 24.2369V31.2769C41.9202 31.9169 41.4002 32.4369 40.7602 32.4369C40.1202 32.4369 39.6002 31.9169 39.6002 31.2769V24.1169L32.0002 11.5169C31.5602 10.7569 32.0802 9.79688 32.9602 9.79688C33.3602 9.79688 33.7202 9.99687 33.9202 10.3569L40.8402 22.1569Z" fill="#E5EAFF"/>
<path d="M73.0802 25.3234C73.8002 25.3234 74.4002 26.0034 74.2002 26.7234C73.7602 28.4434 72.9202 29.8034 71.6802 30.8434C70.1202 32.1234 68.0402 32.7634 65.4402 32.7634C62.6802 32.7634 60.4802 31.8434 58.7602 30.0034C57.0402 28.1634 56.2002 25.6034 56.2002 22.3634V19.8834C56.2002 17.8434 56.6002 16.0434 57.3602 14.4434C58.1202 12.8834 59.2002 11.6434 60.6402 10.8034C62.0402 9.96344 63.6802 9.52344 65.5602 9.52344C68.1602 9.52344 70.2002 10.1634 71.7602 11.4834C73.0002 12.5234 73.8002 13.8834 74.2402 15.6434C74.4002 16.3634 73.8402 17.0434 73.1202 17.0434C72.6002 17.0434 72.1202 16.6834 72.0002 16.1634C71.6802 14.8434 71.1202 13.7634 70.2402 13.0034C69.2002 12.0434 67.6402 11.5634 65.6002 11.5634C63.4402 11.5634 61.7202 12.2834 60.4402 13.7634C59.2002 15.2434 58.5602 17.2834 58.5602 19.9234V22.4834C58.5602 25.0434 59.1602 27.0834 60.4002 28.5634C61.6402 30.0434 63.3202 30.8034 65.4402 30.8034C67.5202 30.8034 69.0802 30.3634 70.1602 29.4434C71.0402 28.6834 71.6402 27.6034 71.9602 26.2034C72.0802 25.6834 72.5602 25.3234 73.0802 25.3234Z" fill="#E5EAFF"/>
<path d="M91.4002 23.3638H84.5202V31.2837C84.5202 31.9237 84.0002 32.4437 83.3602 32.4437C82.7202 32.4437 82.2002 31.9237 82.2002 31.2837V9.84375H90.2002C92.8002 9.84375 94.8402 10.4438 96.3202 11.6838C97.8002 12.8837 98.5202 14.5637 98.5202 16.6837C98.5202 18.1637 98.0802 19.4837 97.1602 20.5638C96.2402 21.6838 95.0402 22.4437 93.5602 22.8437L98.6002 30.7238C99.0402 31.4038 98.6002 32.3237 97.7602 32.4037C97.3602 32.4437 96.9602 32.2437 96.7602 31.8837L91.4002 23.3638ZM84.5602 21.4037H90.6802C92.3602 21.4037 93.7202 20.9637 94.7202 20.1237C95.7202 19.2437 96.2402 18.1237 96.2402 16.7638C96.2402 15.2438 95.7202 14.0837 94.6802 13.2037C93.6402 12.3237 92.2002 11.8837 90.3202 11.8837H84.5602V21.4037Z" fill="#E5EAFF"/>
<path d="M152 22.1237H141.8V31.3238C141.8 31.9638 141.28 32.4837 140.64 32.4837C140 32.4837 139.48 31.9638 139.48 31.3238V9.84375H153.64C154.2 9.84375 154.64 10.2838 154.64 10.8438V10.8838C154.64 11.4438 154.2 11.8838 153.64 11.8838H141.8V20.1638H152C152.56 20.1638 153 20.6038 153 21.1638C153 21.6438 152.56 22.1237 152 22.1237Z" fill="#E5EAFF"/>
<path d="M177.279 11.8437H170.039V31.2837C170.039 31.9237 169.519 32.4437 168.879 32.4437C168.239 32.4437 167.719 31.9237 167.719 31.2837V11.8437H160.479C159.919 11.8437 159.479 11.4037 159.479 10.8437C159.479 10.2837 159.919 9.84375 160.479 9.84375H177.279C177.839 9.84375 178.279 10.2837 178.279 10.8437C178.279 11.4037 177.839 11.8437 177.279 11.8437Z" fill="#E5EAFF"/>
<path d="M211 26.3969H200.04L197.92 31.7169C197.76 32.1169 197.36 32.3969 196.88 32.3969C196.08 32.3969 195.56 31.5969 195.84 30.8769L204 10.8369C204.24 10.1969 204.88 9.79688 205.52 9.79688C206.2 9.79688 206.8 10.1969 207.04 10.8369L215.12 30.8769C215.4 31.5969 214.88 32.3969 214.08 32.3969C213.64 32.3969 213.24 32.1169 213.04 31.7169L211 26.3969ZM200.8 24.4369H210.2L205.52 12.6369L200.8 24.4369Z" fill="#E5EAFF"/>
<path d="M223.84 32.4437C223.2 32.4437 222.68 31.9237 222.68 31.2837V11.0037C222.68 10.3637 223.2 9.84375 223.84 9.84375C224.48 9.84375 225 10.3637 225 11.0037V31.2837C225 31.9237 224.48 32.4437 223.84 32.4437Z" fill="#E5EAFF"/>
<path d="M118.76 7.96094C111.56 7.96094 105.72 13.8009 105.72 21.0009C105.72 28.2009 111.6 34.0009 118.76 34.0009C125.92 34.0009 131.8 28.2009 131.8 21.0009C131.8 13.8009 125.96 7.96094 118.76 7.96094ZM118.76 32.0009C112.68 32.0009 107.76 27.0409 107.76 21.0009C107.76 14.9209 112.72 10.0009 118.76 10.0009C124.84 10.0009 129.76 14.9609 129.76 21.0009C129.8 27.0809 124.84 32.0009 118.76 32.0009Z" fill="#E5EAFF"/>
<path d="M109.72 21.0019C109.72 26.0019 113.76 30.0419 118.76 30.0419V11.9219C113.76 11.9219 109.72 16.0019 109.72 21.0019Z" fill="#E5EAFF"/>
<path d="M118.759 4.64C120.041 4.64 121.079 3.6013 121.079 2.32C121.079 1.0387 120.041 0 118.759 0C117.478 0 116.439 1.0387 116.439 2.32C116.439 3.6013 117.478 4.64 118.759 4.64Z" fill="#E5EAFF"/>
</svg>
