<svg width="140" height="32" viewBox="0 0 140 32" fill="none" xmlns="http://www.w3.org/2000/svg">
<path d="M38.457 13.4675V0.264069H44.0591C44.8387 0.264069 45.5429 0.452691 46.1716 0.829933C46.8129 1.1946 47.3159 1.69759 47.6806 2.3389C48.0578 2.98021 48.2465 3.70326 48.2465 4.50804C48.2465 5.3254 48.0578 6.06102 47.6806 6.71491C47.3159 7.3688 46.8129 7.89065 46.1716 8.28046C45.5429 8.65771 44.8387 8.84633 44.0591 8.84633H41.2863V13.4675H38.457ZM41.2486 6.29994H43.7384C44.0402 6.29994 44.3106 6.22449 44.5495 6.0736C44.7884 5.91013 44.977 5.69636 45.1154 5.43229C45.2663 5.16822 45.3417 4.86642 45.3417 4.52691C45.3417 4.18739 45.2663 3.89188 45.1154 3.64039C44.977 3.37632 44.7884 3.17512 44.5495 3.0368C44.3106 2.8859 44.0402 2.81045 43.7384 2.81045H41.2486V6.29994Z" fill="#E5EAFF"/>
<path d="M50.78 13.4675V0.264069H56.6273C57.4446 0.264069 58.1865 0.452691 58.853 0.829933C59.5195 1.1946 60.0413 1.6913 60.4186 2.32004C60.8084 2.94878 61.0033 3.66554 61.0033 4.47032C61.0033 5.26253 60.8084 5.98557 60.4186 6.63946C60.0413 7.28077 59.5195 7.79005 58.853 8.16729C58.1865 8.54453 57.4446 8.73315 56.6273 8.73315H53.515V13.4675H50.78ZM58.2683 13.4675L54.9108 7.50712L57.8156 7.03557L61.5503 13.4864L58.2683 13.4675ZM53.515 6.43198H56.4952C56.8348 6.43198 57.1303 6.35653 57.3818 6.20563C57.6458 6.04216 57.847 5.8221 57.9854 5.54546C58.1237 5.25624 58.1928 4.93558 58.1928 4.58349C58.1928 4.20625 58.1111 3.87931 57.9476 3.60266C57.7842 3.32602 57.5452 3.11225 57.2309 2.96135C56.9165 2.79788 56.5518 2.71614 56.1369 2.71614H53.515V6.43198Z" fill="#E5EAFF"/>
<path d="M69.6502 13.6562C68.682 13.6562 67.7892 13.4864 66.9718 13.1469C66.1545 12.8074 65.4377 12.3358 64.8215 11.7322C64.2179 11.1161 63.7527 10.393 63.4257 9.56309C63.0988 8.72058 62.9353 7.80891 62.9353 6.82808C62.9353 5.83468 63.0988 4.9293 63.4257 4.11194C63.7527 3.28201 64.2179 2.55896 64.8215 1.9428C65.4377 1.32664 66.1545 0.848795 66.9718 0.509277C67.7892 0.169759 68.682 0 69.6502 0C70.6311 0 71.5239 0.169759 72.3287 0.509277C73.146 0.848795 73.8565 1.32664 74.4601 1.9428C75.0762 2.55896 75.5478 3.28201 75.8747 4.11194C76.2017 4.94187 76.3651 5.84725 76.3651 6.82808C76.3651 7.80891 76.2017 8.71429 75.8747 9.54423C75.5478 10.3742 75.0762 11.0972 74.4601 11.7134C73.8565 12.3295 73.146 12.8074 72.3287 13.1469C71.5239 13.4864 70.6311 13.6562 69.6502 13.6562ZM69.6502 10.9777C70.2035 10.9777 70.7128 10.8771 71.1781 10.676C71.6559 10.4748 72.0646 10.1855 72.4041 9.80829C72.7436 9.43105 73.0077 8.99094 73.1963 8.48795C73.3975 7.98496 73.4981 7.43167 73.4981 6.82808C73.4981 6.2245 73.3975 5.67121 73.1963 5.16822C73.0077 4.66523 72.7436 4.2314 72.4041 3.86673C72.0646 3.48949 71.6559 3.20027 71.1781 2.99908C70.7128 2.7853 70.2035 2.67842 69.6502 2.67842C69.0969 2.67842 68.5877 2.7853 68.1224 2.99908C67.6571 3.20027 67.2485 3.48949 66.8964 3.86673C66.5443 4.2314 66.2739 4.66523 66.0853 5.16822C65.9093 5.67121 65.8212 6.2245 65.8212 6.82808C65.8212 7.43167 65.9093 7.98496 66.0853 8.48795C66.2739 8.99094 66.5443 9.43105 66.8964 9.80829C67.2485 10.1855 67.6571 10.4748 68.1224 10.676C68.5877 10.8771 69.0969 10.9777 69.6502 10.9777Z" fill="#E5EAFF"/>
<path d="M84.9806 13.6562C83.962 13.6562 83.0252 13.4864 82.1701 13.1469C81.3276 12.7948 80.5983 12.3107 79.9821 11.6945C79.3659 11.0783 78.8881 10.3553 78.5486 9.52536C78.2216 8.69543 78.0582 7.79634 78.0582 6.82808C78.0582 5.85983 78.2279 4.96702 78.5674 4.14966C78.9195 3.31973 79.4099 2.60297 80.0387 1.99938C80.68 1.38322 81.4282 0.905382 82.2833 0.565864C83.1384 0.226346 84.0752 0.0565867 85.0937 0.0565867C85.7979 0.0565867 86.4707 0.150897 87.112 0.339518C87.7533 0.528139 88.338 0.785921 88.8662 1.11286C89.3943 1.43981 89.8344 1.81705 90.1865 2.24459L88.4323 4.09308C88.1054 3.77871 87.7596 3.51464 87.3949 3.30087C87.0428 3.07452 86.6719 2.90476 86.282 2.79159C85.8922 2.66584 85.4898 2.60297 85.0749 2.60297C84.4839 2.60297 83.9369 2.70986 83.4339 2.92363C82.9435 3.1374 82.5096 3.4329 82.1324 3.81015C81.7551 4.18739 81.4596 4.63379 81.2459 5.14936C81.0447 5.66492 80.9441 6.2245 80.9441 6.82808C80.9441 7.4191 81.051 7.97867 81.2647 8.50681C81.4911 9.02237 81.7929 9.47506 82.1701 9.86488C82.5599 10.2421 83.0126 10.5439 83.5282 10.7703C84.0437 10.984 84.597 11.0909 85.188 11.0909C85.603 11.0909 85.9991 11.028 86.3764 10.9023C86.7536 10.7765 87.0805 10.6005 87.3572 10.3742C87.6464 10.1352 87.8665 9.85859 88.0174 9.54423C88.1808 9.22986 88.2626 8.89663 88.2626 8.54453V8.09184L88.6398 8.61998H84.8674V6.26222H90.9787C90.9913 6.40054 91.0039 6.5703 91.0164 6.7715C91.0416 6.97269 91.0542 7.17389 91.0542 7.37508C91.0667 7.5637 91.073 7.7146 91.073 7.82777C91.073 8.68286 90.9158 9.46878 90.6015 10.1855C90.2997 10.9023 89.8721 11.5185 89.3188 12.034C88.7781 12.5496 88.1368 12.952 87.3949 13.2412C86.653 13.5178 85.8482 13.6562 84.9806 13.6562Z" fill="#E5EAFF"/>
<path d="M93.5697 13.4675V0.264069H99.417C100.234 0.264069 100.976 0.452691 101.643 0.829933C102.309 1.1946 102.831 1.6913 103.208 2.32004C103.598 2.94878 103.793 3.66554 103.793 4.47032C103.793 5.26253 103.598 5.98557 103.208 6.63946C102.831 7.28077 102.309 7.79005 101.643 8.16729C100.976 8.54453 100.234 8.73315 99.417 8.73315H96.3047V13.4675H93.5697ZM101.058 13.4675L97.7005 7.50712L100.605 7.03557L104.34 13.4864L101.058 13.4675ZM96.3047 6.43198H99.285C99.6245 6.43198 99.92 6.35653 100.171 6.20563C100.436 6.04216 100.637 5.8221 100.775 5.54546C100.913 5.25624 100.983 4.93558 100.983 4.58349C100.983 4.20625 100.901 3.87931 100.737 3.60266C100.574 3.32602 100.335 3.11225 100.021 2.96135C99.7062 2.79788 99.3415 2.71614 98.9266 2.71614H96.3047V6.43198Z" fill="#E5EAFF"/>
<path d="M106.777 13.4675V0.264069H115.699V2.75387H109.531V10.9777H115.831V13.4675H106.777ZM108.097 7.94095V5.5266H114.793V7.94095H108.097Z" fill="#E5EAFF"/>
<path d="M123.032 13.6562C122.214 13.6562 121.466 13.5556 120.787 13.3544C120.121 13.1532 119.523 12.8577 118.995 12.4679C118.48 12.078 118.014 11.6065 117.599 11.0532L119.372 9.03495C119.989 9.89003 120.598 10.4748 121.202 10.7891C121.818 11.0909 122.485 11.2418 123.201 11.2418C123.591 11.2418 123.937 11.1915 124.239 11.0909C124.553 10.9777 124.798 10.8206 124.974 10.6194C125.15 10.4182 125.238 10.1792 125.238 9.90261C125.238 9.70141 125.194 9.51908 125.106 9.3556C125.018 9.17956 124.893 9.02866 124.729 8.90291C124.566 8.76459 124.371 8.64513 124.144 8.54453C123.918 8.43136 123.667 8.33705 123.39 8.2616C123.113 8.17358 122.812 8.10442 122.485 8.05412C121.78 7.89065 121.164 7.69574 120.636 7.46939C120.108 7.23047 119.668 6.94126 119.316 6.60174C118.964 6.24964 118.7 5.85354 118.524 5.41342C118.36 4.97331 118.278 4.47661 118.278 3.92332C118.278 3.35746 118.404 2.8356 118.656 2.35776C118.907 1.86735 119.253 1.4461 119.693 1.094C120.146 0.74191 120.661 0.471553 121.24 0.282931C121.831 0.0943103 122.453 0 123.107 0C123.912 0 124.616 0.0943103 125.22 0.282931C125.823 0.458977 126.345 0.71676 126.785 1.05628C127.238 1.3958 127.615 1.81076 127.917 2.30118L126.125 4.03649C125.861 3.6844 125.572 3.38889 125.257 3.14997C124.956 2.91105 124.622 2.73501 124.258 2.62183C123.906 2.49609 123.541 2.43321 123.164 2.43321C122.749 2.43321 122.39 2.4898 122.089 2.60297C121.787 2.70357 121.548 2.85447 121.372 3.05566C121.208 3.25686 121.127 3.50206 121.127 3.79128C121.127 4.01763 121.183 4.21882 121.296 4.39487C121.409 4.57092 121.573 4.7281 121.787 4.86642C122 4.99217 122.258 5.10534 122.56 5.20594C122.862 5.30654 123.195 5.39456 123.56 5.47001C124.251 5.60833 124.874 5.79067 125.427 6.01701C125.98 6.24336 126.452 6.52 126.842 6.84694C127.244 7.16131 127.552 7.53855 127.766 7.97867C127.98 8.40621 128.087 8.89034 128.087 9.43105C128.087 10.3239 127.873 11.0846 127.445 11.7134C127.018 12.3421 126.427 12.8262 125.672 13.1657C124.918 13.4927 124.038 13.6562 123.032 13.6562Z" fill="#E5EAFF"/>
<path d="M134.931 13.6562C134.114 13.6562 133.365 13.5556 132.686 13.3544C132.02 13.1532 131.423 12.8577 130.894 12.4679C130.379 12.078 129.914 11.6065 129.499 11.0532L131.272 9.03495C131.888 9.89003 132.498 10.4748 133.101 10.7891C133.717 11.0909 134.384 11.2418 135.101 11.2418C135.491 11.2418 135.836 11.1915 136.138 11.0909C136.452 10.9777 136.698 10.8206 136.874 10.6194C137.05 10.4182 137.138 10.1792 137.138 9.90261C137.138 9.70141 137.094 9.51908 137.006 9.3556C136.918 9.17956 136.792 9.02866 136.629 8.90291C136.465 8.76459 136.27 8.64513 136.044 8.54453C135.817 8.43136 135.566 8.33705 135.289 8.2616C135.013 8.17358 134.711 8.10442 134.384 8.05412C133.68 7.89065 133.064 7.69574 132.535 7.46939C132.007 7.23047 131.567 6.94126 131.215 6.60174C130.863 6.24964 130.599 5.85354 130.423 5.41342C130.259 4.97331 130.178 4.47661 130.178 3.92332C130.178 3.35746 130.303 2.8356 130.555 2.35776C130.806 1.86735 131.152 1.4461 131.592 1.094C132.045 0.74191 132.561 0.471553 133.139 0.282931C133.73 0.0943103 134.353 0 135.006 0C135.811 0 136.515 0.0943103 137.119 0.282931C137.723 0.458977 138.244 0.71676 138.685 1.05628C139.137 1.3958 139.514 1.81076 139.816 2.30118L138.024 4.03649C137.76 3.6844 137.471 3.38889 137.157 3.14997C136.855 2.91105 136.522 2.73501 136.157 2.62183C135.805 2.49609 135.44 2.43321 135.063 2.43321C134.648 2.43321 134.29 2.4898 133.988 2.60297C133.686 2.70357 133.447 2.85447 133.271 3.05566C133.108 3.25686 133.026 3.50206 133.026 3.79128C133.026 4.01763 133.082 4.21882 133.196 4.39487C133.309 4.57092 133.472 4.7281 133.686 4.86642C133.9 4.99217 134.158 5.10534 134.459 5.20594C134.761 5.30654 135.094 5.39456 135.459 5.47001C136.151 5.60833 136.773 5.79067 137.326 6.01701C137.88 6.24336 138.351 6.52 138.741 6.84694C139.143 7.16131 139.452 7.53855 139.665 7.97867C139.879 8.40621 139.986 8.89034 139.986 9.43105C139.986 10.3239 139.772 11.0846 139.345 11.7134C138.917 12.3421 138.326 12.8262 137.572 13.1657C136.817 13.4927 135.937 13.6562 134.931 13.6562Z" fill="#E5EAFF"/>
<path d="M38.457 31.2201V18.0166H41.2863V31.2201H38.457ZM39.7585 25.9764V23.5432H46.5866V25.9764H39.7585ZM39.7585 20.563V18.0166H47.3788V20.563H39.7585Z" fill="#E5EAFF"/>
<path d="M55.7063 31.4087C54.738 31.4087 53.8452 31.239 53.0279 30.8995C52.2105 30.5599 51.4937 30.0884 50.8776 29.4848C50.274 28.8686 49.8087 28.1456 49.4818 27.3157C49.1548 26.4731 48.9914 25.5615 48.9914 24.5807C48.9914 23.5872 49.1548 22.6819 49.4818 21.8645C49.8087 21.0346 50.274 20.3115 50.8776 19.6954C51.4937 19.0792 52.2105 18.6014 53.0279 18.2618C53.8452 17.9223 54.738 17.7526 55.7063 17.7526C56.6871 17.7526 57.5799 17.9223 58.3847 18.2618C59.2021 18.6014 59.9125 19.0792 60.5161 19.6954C61.1323 20.3115 61.6038 21.0346 61.9308 21.8645C62.2577 22.6944 62.4212 23.5998 62.4212 24.5807C62.4212 25.5615 62.2577 26.4669 61.9308 27.2968C61.6038 28.1267 61.1323 28.8498 60.5161 29.4659C59.9125 30.0821 59.2021 30.5599 58.3847 30.8995C57.5799 31.239 56.6871 31.4087 55.7063 31.4087ZM55.7063 28.7303C56.2596 28.7303 56.7688 28.6297 57.2341 28.4285C57.7119 28.2273 58.1206 27.9381 58.4601 27.5609C58.7997 27.1836 59.0637 26.7435 59.2524 26.2405C59.4535 25.7375 59.5541 25.1842 59.5541 24.5807C59.5541 23.9771 59.4535 23.4238 59.2524 22.9208C59.0637 22.4178 58.7997 21.984 58.4601 21.6193C58.1206 21.2421 57.7119 20.9528 57.2341 20.7516C56.7688 20.5379 56.2596 20.431 55.7063 20.431C55.153 20.431 54.6437 20.5379 54.1784 20.7516C53.7132 20.9528 53.3045 21.2421 52.9524 21.6193C52.6003 21.984 52.33 22.4178 52.1413 22.9208C51.9653 23.4238 51.8773 23.9771 51.8773 24.5807C51.8773 25.1842 51.9653 25.7375 52.1413 26.2405C52.33 26.7435 52.6003 27.1836 52.9524 27.5609C53.3045 27.9381 53.7132 28.2273 54.1784 28.4285C54.6437 28.6297 55.153 28.7303 55.7063 28.7303Z" fill="#E5EAFF"/>
<path d="M64.9819 31.2201V18.0166H70.8291C71.6465 18.0166 72.3884 18.2053 73.0548 18.5825C73.7213 18.9472 74.2432 19.4439 74.6204 20.0726C75.0102 20.7013 75.2051 21.4181 75.2051 22.2229C75.2051 23.0151 75.0102 23.7381 74.6204 24.392C74.2432 25.0333 73.7213 25.5426 73.0548 25.9199C72.3884 26.2971 71.6465 26.4857 70.8291 26.4857H67.7169V31.2201H64.9819ZM72.4701 31.2201L69.1127 25.2597L72.0174 24.7881L75.7521 31.239L72.4701 31.2201ZM67.7169 24.1845H70.6971C71.0366 24.1845 71.3321 24.1091 71.5836 23.9582C71.8477 23.7947 72.0489 23.5747 72.1872 23.298C72.3255 23.0088 72.3947 22.6882 72.3947 22.3361C72.3947 21.9588 72.3129 21.6319 72.1495 21.3552C71.986 21.0786 71.7471 20.8648 71.4327 20.7139C71.1183 20.5504 70.7537 20.4687 70.3387 20.4687H67.7169V24.1845Z" fill="#E5EAFF"/>
<path d="M83.5292 31.3333C82.4604 31.3333 81.5047 31.1132 80.6622 30.6731C79.8322 30.2204 79.1783 29.6043 78.7005 28.8246C78.2227 28.0324 77.9837 27.1396 77.9837 26.1462V17.9978H80.8319V25.9764C80.8319 26.5046 80.9514 26.9824 81.1903 27.41C81.4292 27.8249 81.7499 28.1582 82.1523 28.4097C82.5672 28.6612 83.0262 28.7869 83.5292 28.7869C84.0448 28.7869 84.51 28.6612 84.925 28.4097C85.3525 28.1582 85.6858 27.8249 85.9247 27.41C86.1762 26.9824 86.3019 26.5046 86.3019 25.9764V17.9978H89.0558V26.1462C89.0558 27.1396 88.8169 28.0324 88.339 28.8246C87.8612 29.6043 87.201 30.2204 86.3585 30.6731C85.5286 31.1132 84.5855 31.3333 83.5292 31.3333Z" fill="#E5EAFF"/>
<path d="M92.3724 31.2201V18.0166H94.9565L99.7664 25.8444L98.0688 25.8256L102.935 18.0166H105.406V31.2201H102.633V26.6932C102.633 25.5615 102.659 24.5429 102.709 23.6375C102.772 22.7322 102.872 21.8331 103.011 20.9403L103.35 21.8268L99.4835 27.8249H98.2386L94.4473 21.8645L94.7679 20.9403C94.9063 21.7828 95.0006 22.6504 95.0509 23.5432C95.1137 24.4235 95.1452 25.4735 95.1452 26.6932V31.2201H92.3724Z" fill="#E5EAFF"/>
<path fill-rule="evenodd" clip-rule="evenodd" d="M31.7491 16.125C31.7491 24.8925 24.6418 32 15.8745 32C12.5621 32 9.48667 30.9854 6.94194 29.2501L22.0536 14.138L27.1303 19.2149V4.89844H12.8143L17.9718 10.0561L2.83982 25.1885C1.04966 22.6186 0 19.4944 0 16.125C0 7.35748 7.10728 0.25 15.8745 0.25C16.1322 0.25 16.3885 0.25614 16.6432 0.268283L16.6309 0.255954L31.7495 0.255953V15.375L31.7308 15.3563C31.743 15.611 31.7491 15.8673 31.7491 16.125Z" fill="#E5EAFF"/>
</svg>
