<svg width="207" height="30" viewBox="0 0 207 30" fill="none" xmlns="http://www.w3.org/2000/svg">
<path d="M26.96 15.16C26.96 19.8533 25.32 23.5067 22.04 26.12C19.64 28.04 16.4267 29 12.4 29C12.2933 29 11.8133 28.9867 10.96 28.96C10.1333 28.9333 8.92 28.92 7.32 28.92H5.32L2.16 28.96C1.97333 28.9867 1.77333 29 1.56 29C1.05333 29 0.8 28.8667 0.8 28.6C0.8 28.36 1.22667 28.24 2.08 28.24C3.17333 28.24 3.85333 28.04 4.12 27.64C4.22667 27.4533 4.28 26.9467 4.28 26.12V4.56C4.28 3.25333 4.17333 2.49333 3.96 2.28C3.77333 2.06666 3.09333 1.96 1.92 1.96C1.30667 1.96 1 1.81333 1 1.52C1 1.30666 1.22667 1.2 1.68 1.2C1.65333 1.2 1.94667 1.21333 2.56 1.24C3.17333 1.26667 3.77333 1.28 4.36 1.28H8.64C13.44 1.28 16.84 1.61333 18.84 2.28C21.2667 3.08 23.2267 4.66667 24.72 7.04C26.2133 9.38667 26.96 12.0933 26.96 15.16ZM22.48 15C22.48 10.5733 21.6133 7.33333 19.88 5.28C18.1467 3.2 15.44 2.16 11.76 2.16C9.97333 2.16 8.89333 2.34667 8.52 2.72C8.36 2.90667 8.28 3.54667 8.28 4.64V25.92C8.28 26.6667 8.29333 27.12 8.32 27.28C8.37333 27.44 8.49333 27.5733 8.68 27.68C9.32 28 10.6667 28.16 12.72 28.16C15.6 28.16 17.92 27.1467 19.68 25.12C21.5467 22.9867 22.48 19.6133 22.48 15ZM46.6328 20.36C46.6328 22.9467 45.8461 25.12 44.2728 26.88C42.6995 28.6133 40.7395 29.48 38.3928 29.48C35.9661 29.48 33.9395 28.6133 32.3128 26.88C30.6861 25.12 29.8728 22.9467 29.8728 20.36C29.8728 17.6933 30.6595 15.48 32.2328 13.72C33.8328 11.96 35.8195 11.08 38.1928 11.08C40.5928 11.08 42.5928 11.9733 44.1928 13.76C45.8195 15.52 46.6328 17.72 46.6328 20.36ZM42.9928 20.32C42.9928 17.3867 42.5395 15.1067 41.6328 13.48C40.9661 12.28 39.8461 11.68 38.2728 11.68C36.7795 11.68 35.6061 12.4533 34.7528 14C33.9261 15.52 33.5128 17.64 33.5128 20.36C33.5128 23.0533 33.9528 25.16 34.8328 26.68C35.7395 28.1733 36.9928 28.92 38.5928 28.92C39.8195 28.92 40.7261 28.4533 41.3128 27.52C42.4328 25.76 42.9928 23.36 42.9928 20.32ZM63.6516 15.2C63.6516 16.4267 63.0516 17.04 61.8516 17.04C60.6782 17.04 60.0916 16.48 60.0916 15.36C60.0916 15.0667 60.2249 14.6267 60.4916 14.04C60.5716 13.8533 60.6116 13.6667 60.6116 13.48C60.6116 12.9467 60.3316 12.5067 59.7716 12.16C59.2382 11.8133 58.5582 11.64 57.7316 11.64C56.1316 11.64 54.8916 12.3333 54.0116 13.72C53.1316 15.1067 52.6916 17.0533 52.6916 19.56C52.6916 22.3867 53.1449 24.5733 54.0516 26.12C54.9582 27.64 56.2382 28.4 57.8916 28.4C59.0116 28.4 60.0116 28.0533 60.8916 27.36C61.2916 27.04 61.8116 26.4267 62.4516 25.52C62.5849 25.3867 62.7049 25.32 62.8116 25.32C63.0782 25.32 63.2116 25.4267 63.2116 25.64C63.2116 25.9867 62.7449 26.64 61.8116 27.6C60.6116 28.8533 59.0782 29.48 57.2116 29.48C54.8649 29.48 52.9182 28.64 51.3716 26.96C49.8516 25.28 49.0916 23.16 49.0916 20.6C49.0916 17.8533 49.9049 15.5867 51.5316 13.8C53.1582 11.9867 55.1982 11.08 57.6516 11.08C59.2249 11.08 60.6116 11.4933 61.8116 12.32C63.0382 13.1467 63.6516 14.1067 63.6516 15.2ZM76.3388 26.64C76.3388 26.88 76.0054 27.3067 75.3388 27.92C74.1921 28.96 72.8321 29.48 71.2588 29.48C69.7921 29.48 68.6854 29.1067 67.9388 28.36C67.5121 27.9333 67.2988 26.68 67.2988 24.6V12.68C67.2721 12.4133 67.1254 12.2667 66.8587 12.24H65.3388C64.7521 12.24 64.4588 12.1467 64.4588 11.96C64.4588 11.7733 64.6054 11.6667 64.8988 11.64C66.9788 11.4533 68.6054 10.44 69.7788 8.6C69.9388 8.36 70.1388 8.24 70.3788 8.24C70.5654 8.24 70.6588 8.33333 70.6588 8.52V8.68C70.6321 8.81333 70.6188 9.04 70.6188 9.36C70.6188 10.48 70.6721 11.2 70.7788 11.52C71.0188 11.5733 71.4188 11.6 71.9788 11.6C73.4454 11.6 74.4188 11.5333 74.8988 11.4C75.0054 11.3733 75.0988 11.36 75.1788 11.36C75.3921 11.36 75.4988 11.48 75.4988 11.72C75.4988 12.12 74.4188 12.32 72.2588 12.32C71.8854 12.32 71.3388 12.3067 70.6188 12.28V19.68C70.6188 23.4133 70.7121 25.76 70.8988 26.72C71.0854 27.6533 71.6988 28.12 72.7388 28.12C73.6188 28.12 74.6054 27.6267 75.6988 26.64C75.8054 26.5067 75.9254 26.44 76.0588 26.44C76.2454 26.44 76.3388 26.5067 76.3388 26.64ZM93.5859 20.36C93.5859 22.9467 92.7993 25.12 91.2259 26.88C89.6526 28.6133 87.6926 29.48 85.3459 29.48C82.9193 29.48 80.8926 28.6133 79.2659 26.88C77.6393 25.12 76.8259 22.9467 76.8259 20.36C76.8259 17.6933 77.6126 15.48 79.1859 13.72C80.7859 11.96 82.7726 11.08 85.1459 11.08C87.5459 11.08 89.5459 11.9733 91.1459 13.76C92.7726 15.52 93.5859 17.72 93.5859 20.36ZM89.9459 20.32C89.9459 17.3867 89.4926 15.1067 88.5859 13.48C87.9193 12.28 86.7993 11.68 85.2259 11.68C83.7326 11.68 82.5593 12.4533 81.7059 14C80.8793 15.52 80.4659 17.64 80.4659 20.36C80.4659 23.0533 80.9059 25.16 81.7859 26.68C82.6926 28.1733 83.9459 28.92 85.5459 28.92C86.7726 28.92 87.6793 28.4533 88.2659 27.52C89.3859 25.76 89.9459 23.36 89.9459 20.32ZM108.285 13.8C108.285 14.4133 108.098 14.92 107.725 15.32C107.351 15.72 106.871 15.92 106.285 15.92C105.805 15.92 105.405 15.7867 105.085 15.52C104.765 15.2267 104.605 14.8667 104.605 14.44C104.605 14.0667 104.725 13.7467 104.965 13.48C105.205 13.2133 105.325 13.0267 105.325 12.92C105.325 12.52 105.031 12.32 104.445 12.32C103.698 12.32 103.058 12.7867 102.525 13.72C101.911 14.8133 101.605 16.84 101.605 19.8V27.72C101.605 28.04 101.711 28.24 101.925 28.32C102.165 28.4 102.858 28.4533 104.005 28.48C104.298 28.5333 104.445 28.64 104.445 28.8C104.445 28.9867 104.271 29.08 103.925 29.08C103.311 29.08 102.738 29.0667 102.205 29.04C101.671 29.0133 100.658 29 99.1647 29C98.3914 29 97.8314 29.0133 97.4847 29.04C97.138 29.0667 96.698 29.08 96.1647 29.08C95.738 29.08 95.5247 28.9867 95.5247 28.8C95.5247 28.6133 95.698 28.52 96.0447 28.52H96.6047C97.5114 28.52 98.0447 28.4133 98.2047 28.2C98.258 28.0933 98.2847 27.6 98.2847 26.72V15.72C98.2847 14.2533 98.058 13.4133 97.6047 13.2C97.178 12.96 96.4847 12.8267 95.5247 12.8C95.2047 12.8 95.0447 12.7067 95.0447 12.52C95.0447 12.3333 95.178 12.24 95.4447 12.24H95.7247C96.1247 12.24 96.5247 12.2667 96.9247 12.32C97.3247 12.3467 97.498 12.36 97.4447 12.36C98.4314 12.36 99.5247 12.08 100.725 11.52L101.245 11.28L101.565 11.16C101.671 11.8 101.725 12.44 101.725 13.08V13.88C102.578 12.0133 103.778 11.08 105.325 11.08C106.178 11.08 106.885 11.3467 107.445 11.88C108.005 12.3867 108.285 13.0267 108.285 13.8ZM141.902 1.52C141.902 1.73333 141.649 1.85333 141.142 1.88C139.969 1.90667 139.182 2.08 138.782 2.4C138.382 2.72 137.969 3.46666 137.542 4.64L136.182 8.36C132.902 17.3467 130.596 24.24 129.262 29.04C129.182 29.36 129.049 29.52 128.862 29.52C128.649 29.52 128.209 28.52 127.542 26.52C126.342 22.8667 125.409 20.12 124.742 18.28C124.022 16.2533 122.956 13.2267 121.542 9.2L119.622 3.8C119.356 3.05333 119.062 2.56 118.742 2.32C118.422 2.05333 117.889 1.90667 117.142 1.88C116.262 1.85333 115.742 1.82667 115.582 1.8C115.396 1.77333 115.302 1.66666 115.302 1.48C115.302 1.24 115.569 1.12 116.102 1.12H116.462C116.942 1.12 117.769 1.14667 118.942 1.2C120.142 1.22667 120.996 1.24 121.502 1.24C121.636 1.24 122.142 1.22667 123.022 1.2C123.929 1.14667 125.209 1.12 126.862 1.12H127.422C127.902 1.12 128.142 1.25333 128.142 1.52C128.142 1.81333 127.662 1.97333 126.702 2L124.262 2.08C123.702 2.10666 123.422 2.28 123.422 2.6C123.422 2.65333 123.449 2.76 123.502 2.92L123.822 3.96C123.876 4.17333 125.169 7.93333 127.702 15.24C128.129 16.4933 128.942 18.88 130.142 22.4C134.542 9.94667 136.742 3.4 136.742 2.76C136.742 2.12 136.089 1.82667 134.782 1.88L133.542 1.92C133.222 1.92 133.062 1.81333 133.062 1.6C133.062 1.33333 133.462 1.2 134.262 1.2C134.422 1.2 134.876 1.2 135.622 1.2C136.369 1.22667 136.916 1.24 137.262 1.24H138.542L141.182 1.2C141.662 1.2 141.902 1.30666 141.902 1.52ZM157.215 24.64C157.215 24.9067 157.001 25.3867 156.575 26.08C156.175 26.7467 155.761 27.2933 155.335 27.72C154.188 28.8933 152.655 29.48 150.735 29.48C148.335 29.48 146.321 28.6133 144.695 26.88C143.095 25.1467 142.295 23 142.295 20.44C142.295 17.7733 143.055 15.5467 144.575 13.76C146.121 11.9733 148.041 11.08 150.335 11.08C152.228 11.08 153.815 11.64 155.095 12.76C156.375 13.8533 157.055 15.2667 157.135 17C156.281 17.1333 155.148 17.1867 153.735 17.16L150.935 17.12C150.748 17.12 149.148 17.16 146.135 17.24C146.001 18.12 145.935 18.96 145.935 19.76C145.935 22.4533 146.441 24.5333 147.455 26C148.495 27.44 149.948 28.16 151.815 28.16C152.881 28.16 153.735 27.92 154.375 27.44C155.015 26.96 155.708 26.04 156.455 24.68C156.561 24.4667 156.708 24.36 156.895 24.36C157.108 24.36 157.215 24.4533 157.215 24.64ZM153.735 16.48C153.628 13.28 152.481 11.68 150.295 11.68C148.135 11.68 146.788 13.28 146.255 16.48H153.735ZM171.722 13.8C171.722 14.4133 171.536 14.92 171.162 15.32C170.789 15.72 170.309 15.92 169.722 15.92C169.242 15.92 168.842 15.7867 168.522 15.52C168.202 15.2267 168.042 14.8667 168.042 14.44C168.042 14.0667 168.162 13.7467 168.402 13.48C168.642 13.2133 168.762 13.0267 168.762 12.92C168.762 12.52 168.469 12.32 167.882 12.32C167.136 12.32 166.496 12.7867 165.962 13.72C165.349 14.8133 165.042 16.84 165.042 19.8V27.72C165.042 28.04 165.149 28.24 165.362 28.32C165.602 28.4 166.296 28.4533 167.442 28.48C167.736 28.5333 167.882 28.64 167.882 28.8C167.882 28.9867 167.709 29.08 167.362 29.08C166.749 29.08 166.176 29.0667 165.642 29.04C165.109 29.0133 164.096 29 162.602 29C161.829 29 161.269 29.0133 160.922 29.04C160.576 29.0667 160.136 29.08 159.602 29.08C159.176 29.08 158.962 28.9867 158.962 28.8C158.962 28.6133 159.136 28.52 159.482 28.52H160.042C160.949 28.52 161.482 28.4133 161.642 28.2C161.696 28.0933 161.722 27.6 161.722 26.72V15.72C161.722 14.2533 161.496 13.4133 161.042 13.2C160.616 12.96 159.922 12.8267 158.962 12.8C158.642 12.8 158.482 12.7067 158.482 12.52C158.482 12.3333 158.616 12.24 158.882 12.24H159.162C159.562 12.24 159.962 12.2667 160.362 12.32C160.762 12.3467 160.936 12.36 160.882 12.36C161.869 12.36 162.962 12.08 164.162 11.52L164.682 11.28L165.002 11.16C165.109 11.8 165.162 12.44 165.162 13.08V13.88C166.016 12.0133 167.216 11.08 168.762 11.08C169.616 11.08 170.322 11.3467 170.882 11.88C171.442 12.3867 171.722 13.0267 171.722 13.8ZM190.878 28.2C190.878 28.3867 190.691 28.48 190.318 28.48H190.118C189.904 28.48 189.678 28.4667 189.438 28.44C189.224 28.44 189.118 28.44 189.118 28.44C187.811 28.44 186.704 28.7067 185.798 29.24C185.424 29.4533 185.198 29.56 185.118 29.56C184.878 29.56 184.758 29.4 184.758 29.08L184.798 27.84C183.651 28.9333 182.291 29.48 180.718 29.48C178.478 29.48 176.624 28.6267 175.158 26.92C173.718 25.1867 172.998 22.9867 172.998 20.32C172.998 17.5733 173.718 15.3467 175.158 13.64C176.624 11.9333 178.531 11.08 180.878 11.08C182.691 11.08 184.051 11.7333 184.958 13.04V6.8C184.958 4.77333 184.864 3.52 184.678 3.04C184.518 2.64 184.278 2.45333 183.958 2.48C183.184 2.56 182.718 2.6 182.558 2.6C182.211 2.6 182.038 2.48 182.038 2.24C182.038 2 182.184 1.88 182.478 1.88L183.918 1.92C184.718 1.94666 185.944 1.57333 187.598 0.799998C187.704 0.746666 187.798 0.719999 187.878 0.719999C188.144 0.719999 188.278 1.04 188.278 1.68C188.278 1.84 188.278 2.12 188.278 2.52C188.251 2.94667 188.238 3.32 188.238 3.64V17.44C188.238 23.76 188.304 27.1467 188.438 27.6C188.491 27.7867 189.118 27.88 190.318 27.88C190.691 27.88 190.878 27.9867 190.878 28.2ZM184.958 18.16C184.958 15.6 184.678 13.96 184.118 13.24C183.398 12.3333 182.478 11.88 181.358 11.88C179.918 11.88 178.771 12.6267 177.918 14.12C177.064 15.6133 176.638 17.6133 176.638 20.12C176.638 22.52 177.011 24.5733 177.758 26.28C178.078 27 178.544 27.6 179.158 28.08C179.798 28.5333 180.451 28.76 181.118 28.76C181.944 28.76 182.691 28.52 183.358 28.04C184.024 27.5333 184.451 26.9333 184.638 26.24C184.851 25.5467 184.958 22.8533 184.958 18.16ZM206.941 24.64C206.941 24.9067 206.728 25.3867 206.301 26.08C205.901 26.7467 205.488 27.2933 205.061 27.72C203.915 28.8933 202.381 29.48 200.461 29.48C198.061 29.48 196.048 28.6133 194.421 26.88C192.821 25.1467 192.021 23 192.021 20.44C192.021 17.7733 192.781 15.5467 194.301 13.76C195.848 11.9733 197.768 11.08 200.061 11.08C201.955 11.08 203.541 11.64 204.821 12.76C206.101 13.8533 206.781 15.2667 206.861 17C206.008 17.1333 204.875 17.1867 203.461 17.16L200.661 17.12C200.475 17.12 198.875 17.16 195.861 17.24C195.728 18.12 195.661 18.96 195.661 19.76C195.661 22.4533 196.168 24.5333 197.181 26C198.221 27.44 199.675 28.16 201.541 28.16C202.608 28.16 203.461 27.92 204.101 27.44C204.741 26.96 205.435 26.04 206.181 24.68C206.288 24.4667 206.435 24.36 206.621 24.36C206.835 24.36 206.941 24.4533 206.941 24.64ZM203.461 16.48C203.355 13.28 202.208 11.68 200.021 11.68C197.861 11.68 196.515 13.28 195.981 16.48H203.461Z" fill="#E5EAFF"/>
</svg>
