<svg width="222" height="38" viewBox="0 0 222 38" fill="none" xmlns="http://www.w3.org/2000/svg">
<path d="M142.088 20.8117L144.589 18.2365C144.987 17.7908 144.987 17.0985 144.589 16.6774C144.069 16.1573 143.252 16.2077 142.779 16.7028C141.57 17.9406 140.354 19.2289 139.141 20.4908V11.7008C139.141 11.1069 138.573 10.6105 137.879 10.6105C137.187 10.6105 136.616 11.1069 136.616 11.7008V27.1017C136.616 27.7438 137.187 28.2411 137.879 28.2411C138.573 28.2411 139.141 27.7438 139.141 27.1017V23.6105C139.141 23.6105 139.166 23.6105 140.256 22.471L142.929 27.6463C143.126 28.0175 143.597 28.2411 144.069 28.2411C145.011 28.2411 145.553 27.2991 145.159 26.5567L142.088 20.8117ZM98.9819 20.6896C98.363 20.392 98.191 20.0698 98.191 19.6751C98.191 18.7575 99.1558 18.5103 99.7747 18.5103C100.617 18.5103 101.26 18.7316 101.459 19.4014C101.88 20.8884 104.529 19.9958 103.539 18.1886C102.87 16.9747 101.459 16.3558 99.7747 16.3558C97.4723 16.3558 95.7393 17.791 95.7393 19.6751C95.7393 21.4316 96.9772 22.2488 97.8934 22.6935C98.9324 23.2149 101.681 23.4858 101.681 24.8239C101.681 25.6148 101.087 26.1848 100.122 26.1848C99.1812 26.1848 98.315 25.8885 97.8934 24.9224C97.2246 23.5856 94.9461 24.5766 95.6645 25.912C96.5556 27.7938 98.0172 28.3388 100.196 28.3388C102.225 28.3388 104.232 27.1269 104.232 24.8239C104.232 21.9511 100.915 21.5789 98.9819 20.6896ZM59.5854 16.3558C58.8681 16.3558 58.2977 16.8508 58.2977 17.4938V27.1018C58.2977 27.7439 58.8681 28.2412 59.5854 28.2412C60.2543 28.2412 60.8234 27.7439 60.8234 27.1019V17.4938C60.8234 16.8508 60.2543 16.3558 59.5854 16.3558ZM59.536 11.0317C57.3566 11.0317 57.3566 14.1273 59.536 14.1273C61.7645 14.1273 61.7159 11.0317 59.536 11.0317ZM20.219 20.8118L22.7193 18.2366C23.1145 17.791 23.1145 17.0986 22.7193 16.6775C22.1979 16.1574 21.3815 16.2079 20.9119 16.7029C19.6981 17.9407 18.4856 19.229 17.2713 20.4909V11.7011C17.2713 11.107 16.7023 10.6106 16.0094 10.6106C15.3147 10.6106 14.7457 11.107 14.7457 11.701V27.1018C14.7457 27.7439 15.3147 28.2412 16.0094 28.2412C16.7023 28.2412 17.2713 27.7439 17.2713 27.1019V23.6106C17.2713 23.6106 17.2973 23.6106 18.3862 22.4712L21.0598 27.6464C21.2595 28.0176 21.7282 28.2412 22.1979 28.2412C23.1403 28.2412 23.6835 27.2992 23.2883 26.5569L20.219 20.8118ZM157.618 30.3953C157.618 33.3915 155.181 35.828 152.188 35.828H129.395C126.4 35.828 123.962 33.3915 123.962 30.3953V7.6024C123.962 4.60843 126.4 2.17104 129.395 2.17104H152.188C155.181 2.17104 157.618 4.60843 157.618 7.6024V30.3953ZM152.188 0H129.395C125.202 0 121.789 3.40942 121.789 7.6024V30.3953C121.789 34.5882 125.202 38 129.395 38H152.188C156.379 38 159.79 34.5882 159.79 30.3953V7.6024C159.79 3.40942 156.379 0 152.188 0ZM117.022 30.3953C117.022 33.3915 114.584 35.828 111.59 35.828H88.7976C85.8032 35.828 83.3663 33.3915 83.3663 30.3953V7.6024C83.3663 4.60843 85.8032 2.17104 88.7976 2.17104H111.59C114.584 2.17104 117.022 4.60843 117.022 7.6024V30.3953ZM111.59 0H88.7976C84.6046 0 81.1937 3.40942 81.1937 7.6024V30.3953C81.1937 34.5882 84.6046 38 88.7976 38H111.59C115.783 38 119.193 34.5882 119.193 30.3953V7.6024C119.193 3.40942 115.783 0 111.59 0ZM76.4244 30.3953C76.4244 33.3915 73.987 35.828 70.9926 35.828H48.1993C45.2049 35.828 42.769 33.3915 42.769 30.3953V7.6024C42.769 4.60843 45.2049 2.17104 48.1993 2.17104H70.9926C73.987 2.17104 76.4244 4.60843 76.4244 7.6024V30.3953ZM70.9926 0H48.1993C44.0072 0 40.5978 3.40942 40.5978 7.6024V30.3953C40.5978 34.5882 44.0072 38 48.1993 38H70.9926C75.1856 38 78.5969 34.5882 78.5969 30.3953V7.6024C78.5969 3.40942 75.1856 0 70.9926 0ZM35.8271 30.3953C35.8271 33.3915 33.391 35.828 30.3967 35.828H7.60328C4.60899 35.828 2.17292 33.3915 2.17292 30.3953V7.6024C2.17292 4.60843 4.60899 2.17104 7.60328 2.17104H30.3967C33.391 2.17104 35.8271 4.60843 35.8271 7.6024V30.3953ZM30.3967 0H7.60328C3.41131 0 0 3.40942 0 7.6024V30.3953C0 34.5882 3.41131 38 7.60328 38H30.3967C34.5891 38 37.9987 34.5882 37.9987 30.3953V7.6024C37.9987 3.40942 34.5891 0 30.3967 0ZM212.147 8.74593C211.547 8.74593 211.06 9.23317 211.06 9.83223V20.7659C211.06 23.7608 208.624 26.1982 205.629 26.1982H200.92V23.7289C200.92 23.5357 200.815 23.355 200.648 23.2588C200.48 23.1603 200.273 23.1603 200.103 23.2588L193.947 26.8125C193.78 26.91 193.675 27.0902 193.675 27.2835C193.675 27.4781 193.78 27.6575 193.947 27.7522L200.103 31.3096C200.188 31.3572 200.281 31.3822 200.374 31.3822C200.468 31.3822 200.565 31.3572 200.648 31.3096C200.815 31.2125 200.92 31.0332 200.92 30.8371V28.3693H205.629C209.823 28.3693 213.233 24.9589 213.233 20.7659V9.83223C213.233 9.23317 212.747 8.74593 212.147 8.74593ZM219.694 30.3953C219.694 33.3915 217.258 35.8265 214.265 35.8265H170.002C167.005 35.8265 164.569 33.3915 164.569 30.3953V7.6024C164.569 4.60843 167.005 2.17104 170.002 2.17104H214.265C217.258 2.17104 219.694 4.60843 219.694 7.6024V30.3953ZM214.265 0H170.002C165.808 0 162.397 3.40942 162.397 7.6024V30.3953C162.397 34.5882 165.808 38 170.002 38H214.265C218.456 38 221.866 34.5882 221.866 30.3953V7.6024C221.866 3.40942 218.456 0 214.265 0Z" fill="white"/>
</svg>
