<svg width="127" height="40" viewBox="0 0 127 40" fill="none" xmlns="http://www.w3.org/2000/svg">
<path d="M18.669 4.0735C21.355 4.0735 23.33 4.5475 24.594 5.4955C25.858 6.41717 26.49 7.64167 26.49 9.169C26.49 10.5383 26.0818 11.776 25.2655 12.882C24.4492 13.9617 23.3563 14.8702 21.987 15.6075C20.644 16.3448 19.1693 16.8978 17.563 17.2665C20.17 17.5562 22.0265 18.2935 23.1325 19.4785C24.2648 20.6372 24.831 22.0065 24.831 23.5865C24.831 25.0085 24.4887 26.2462 23.804 27.2995C23.1457 28.3265 22.2372 29.1955 21.0785 29.9065C19.9462 30.5912 18.6558 31.1178 17.2075 31.4865C15.7592 31.8288 14.245 32 12.665 32C11.717 32 10.7032 31.9868 9.6235 31.9605C8.57017 31.9078 7.30617 31.8815 5.8315 31.8815C5.1995 31.8815 4.55433 31.8947 3.896 31.921C3.23767 31.921 2.61883 31.9342 2.0395 31.9605C1.46017 31.9605 0.973 31.9737 0.578 32L0.736 31.21C1.63133 31.1573 2.32917 31.052 2.8295 30.894C3.32983 30.736 3.72483 30.42 4.0145 29.946C4.30417 29.472 4.5675 28.761 4.8045 27.813L10.0185 8.221C10.2028 7.431 10.3082 6.799 10.3345 6.325C10.3608 5.82467 10.1765 5.456 9.7815 5.219C9.41283 4.95567 8.715 4.824 7.688 4.824L7.8855 4.034C8.2805 4.06033 8.7545 4.08667 9.3075 4.113C9.88683 4.113 10.4925 4.12617 11.1245 4.1525C11.7828 4.1525 12.4148 4.1525 13.0205 4.1525C14.0475 4.1525 15.0087 4.13933 15.904 4.113C16.7993 4.08667 17.721 4.0735 18.669 4.0735ZM11.2035 17.8195L11.3615 17.148H14.3635C15.9172 17.148 17.247 16.7793 18.353 16.042C19.4853 15.2783 20.3412 14.2908 20.9205 13.0795C21.5262 11.8418 21.829 10.5383 21.829 9.169C21.829 7.747 21.5262 6.66733 20.9205 5.93C20.3412 5.19267 19.3537 4.824 17.958 4.824C16.931 4.824 16.1937 5.00833 15.746 5.377C15.3247 5.71933 14.9692 6.46983 14.6795 7.6285L9.347 27.813C9.16267 28.524 9.05733 29.1297 9.031 29.63C9.00467 30.1303 9.1495 30.499 9.4655 30.736C9.7815 30.973 10.3608 31.0915 11.2035 31.0915C13.2838 31.0915 14.9692 30.7623 16.2595 30.104C17.5498 29.4193 18.4978 28.4713 19.1035 27.26C19.7092 26.0223 20.012 24.5872 20.012 22.9545C20.012 21.9012 19.8277 20.9927 19.459 20.229C19.1167 19.4653 18.5505 18.8728 17.7605 18.4515C16.9968 18.0302 15.983 17.8195 14.719 17.8195H11.2035ZM34.9208 4.666C35.0261 3.82333 35.3948 3.13867 36.0268 2.612C36.6588 2.08533 37.3829 1.822 38.1993 1.822C38.9629 1.822 39.5554 2.07216 39.9768 2.5725C40.4244 3.0465 40.5956 3.639 40.4903 4.35C40.3849 5.16633 40.0031 5.851 39.3448 6.404C38.7128 6.93067 37.9886 7.194 37.1723 7.194C36.4086 7.194 35.8161 6.957 35.3948 6.483C34.9734 5.98267 34.8154 5.377 34.9208 4.666ZM33.6173 15.015C34.1176 13.4877 33.9464 12.724 33.1038 12.724C32.5244 12.724 32.0109 13.0268 31.5633 13.6325C31.1156 14.2118 30.6548 15.1467 30.1808 16.437L29.5488 18.096H28.7983L29.8253 15.173C30.2203 14.0933 30.6943 13.2638 31.2473 12.6845C31.8003 12.1052 32.3928 11.697 33.0248 11.46C33.6831 11.223 34.3151 11.1045 34.9208 11.1045C35.7898 11.1045 36.4481 11.2757 36.8958 11.618C37.3434 11.9603 37.6199 12.408 37.7253 12.961C37.8306 13.514 37.8306 14.1197 37.7253 14.778C37.6199 15.41 37.4619 16.0288 37.2513 16.6345L33.0643 28.6425C32.8009 29.3798 32.7219 29.946 32.8273 30.341C32.9326 30.736 33.2091 30.9335 33.6568 30.9335C34.1308 30.9335 34.5916 30.6833 35.0393 30.183C35.4869 29.6563 35.9873 28.6688 36.5403 27.2205L37.1723 25.601H37.9228L36.8958 28.4845C36.5271 29.5378 36.0663 30.3542 35.5133 30.9335C34.9603 31.5128 34.3678 31.921 33.7358 32.158C33.1301 32.4213 32.5113 32.553 31.8793 32.553C30.7469 32.553 29.9438 32.3028 29.4698 31.8025C29.0221 31.2758 28.8246 30.578 28.8773 29.709C28.9299 28.8137 29.1406 27.8393 29.5093 26.786L33.6173 15.015ZM52.1662 11.8945C51.4026 11.8945 50.6521 12.2368 49.9147 12.9215C49.1774 13.6062 48.4796 14.541 47.8212 15.726C47.1892 16.8847 46.6231 18.1882 46.1227 19.6365C45.6224 21.0848 45.2274 22.5858 44.9377 24.1395C44.6744 25.6932 44.5427 27.1678 44.5427 28.5635C44.5427 29.6695 44.7007 30.4858 45.0167 31.0125C45.3591 31.5128 45.8462 31.763 46.4782 31.763C47.2419 31.763 47.9924 31.4207 48.7297 30.736C49.4671 30.0513 50.1649 29.1297 50.8232 27.971C51.4816 26.8123 52.0477 25.522 52.5217 24.1C53.0221 22.6517 53.4039 21.1507 53.6672 19.597C53.9569 18.0433 54.1017 16.5423 54.1017 15.094C54.1017 13.9353 53.9437 13.119 53.6277 12.645C53.3117 12.1447 52.8246 11.8945 52.1662 11.8945ZM40.5137 26.233C40.5137 25.0743 40.6717 23.8103 40.9877 22.441C41.3037 21.0717 41.7909 19.7155 42.4492 18.3725C43.1076 17.0295 43.8976 15.8182 44.8192 14.7385C45.7672 13.6325 46.8732 12.7503 48.1372 12.092C49.4276 11.4337 50.8496 11.1045 52.4032 11.1045C54.1676 11.1045 55.5632 11.6312 56.5902 12.6845C57.6172 13.7115 58.1307 15.2915 58.1307 17.4245C58.1307 18.5832 57.9727 19.8472 57.6567 21.2165C57.3407 22.5858 56.8536 23.942 56.1952 25.285C55.5369 26.628 54.7337 27.8525 53.7857 28.9585C52.8641 30.0382 51.7581 30.9072 50.4677 31.5655C49.2037 32.2238 47.7949 32.553 46.2412 32.553C44.4769 32.553 43.0812 32.0263 42.0542 30.973C41.0272 29.9197 40.5137 28.3397 40.5137 26.233ZM64.1724 28.6425C63.988 29.3798 63.9354 29.946 64.0144 30.341C64.1197 30.736 64.3962 30.9335 64.8439 30.9335C65.2915 30.9335 65.7392 30.6702 66.1869 30.1435C66.6345 29.6168 67.1085 28.6425 67.6089 27.2205L68.2014 25.601H68.9519L67.9644 28.4845C67.622 29.5115 67.1875 30.3278 66.6609 30.9335C66.1342 31.5128 65.568 31.921 64.9624 32.158C64.3567 32.4213 63.7247 32.553 63.0664 32.553C62.1974 32.553 61.539 32.395 61.0914 32.079C60.6437 31.763 60.3409 31.3285 60.1829 30.7755C60.0512 30.1962 60.0249 29.5642 60.1039 28.8795C60.2092 28.1948 60.3672 27.497 60.5779 26.786L66.9374 5.6535C67.2007 4.75817 67.1744 4.09983 66.8584 3.6785C66.5424 3.25717 65.7392 3.0465 64.4489 3.0465L64.7254 2.217C66.3054 2.19067 67.701 2.04583 68.9124 1.7825C70.15 1.49283 71.335 1.09783 72.4674 0.597499L64.1724 28.6425ZM83.2571 11.8945C82.4934 11.8945 81.7429 12.2368 81.0056 12.9215C80.2682 13.6062 79.5704 14.541 78.9121 15.726C78.2801 16.8847 77.7139 18.1882 77.2136 19.6365C76.7132 21.0848 76.3182 22.5858 76.0286 24.1395C75.7652 25.6932 75.6336 27.1678 75.6336 28.5635C75.6336 29.6695 75.7916 30.4858 76.1076 31.0125C76.4499 31.5128 76.9371 31.763 77.5691 31.763C78.3327 31.763 79.0832 31.4207 79.8206 30.736C80.5579 30.0513 81.2557 29.1297 81.9141 27.971C82.5724 26.8123 83.1386 25.522 83.6126 24.1C84.1129 22.6517 84.4947 21.1507 84.7581 19.597C85.0477 18.0433 85.1926 16.5423 85.1926 15.094C85.1926 13.9353 85.0346 13.119 84.7186 12.645C84.4026 12.1447 83.9154 11.8945 83.2571 11.8945ZM71.6046 26.233C71.6046 25.0743 71.7626 23.8103 72.0786 22.441C72.3946 21.0717 72.8817 19.7155 73.5401 18.3725C74.1984 17.0295 74.9884 15.8182 75.9101 14.7385C76.8581 13.6325 77.9641 12.7503 79.2281 12.092C80.5184 11.4337 81.9404 11.1045 83.4941 11.1045C85.2584 11.1045 86.6541 11.6312 87.6811 12.6845C88.7081 13.7115 89.2216 15.2915 89.2216 17.4245C89.2216 18.5832 89.0636 19.8472 88.7476 21.2165C88.4316 22.5858 87.9444 23.942 87.2861 25.285C86.6277 26.628 85.8246 27.8525 84.8766 28.9585C83.9549 30.0382 82.8489 30.9072 81.5586 31.5655C80.2946 32.2238 78.8857 32.553 77.3321 32.553C75.5677 32.553 74.1721 32.0263 73.1451 30.973C72.1181 29.9197 71.6046 28.3397 71.6046 26.233ZM99.3317 23.1125L100.596 23.073C99.6214 23.5733 98.7392 24.0342 97.9492 24.4555C97.1592 24.8505 96.5272 25.2323 96.0532 25.601C95.5792 25.9433 95.3422 26.2725 95.3422 26.5885C95.3422 26.8518 95.5134 27.0888 95.8557 27.2995C96.2244 27.4838 96.7774 27.6813 97.5147 27.892L100.556 28.761C101.373 28.9717 102.11 29.235 102.768 29.551C103.453 29.8407 103.993 30.2225 104.388 30.6965C104.809 31.1442 105.02 31.7367 105.02 32.474C105.02 33.2377 104.77 34.0277 104.269 34.844C103.769 35.6867 103.032 36.4635 102.057 37.1745C101.083 37.9118 99.8715 38.5043 98.4232 38.952C96.9749 39.426 95.3027 39.663 93.4067 39.663C92.0374 39.663 90.8655 39.5313 89.8912 39.268C88.8905 39.031 88.14 38.6887 87.6397 38.241C87.113 37.7933 86.8497 37.2667 86.8497 36.661C86.8497 36.2133 87.0077 35.7657 87.3237 35.318C87.6134 34.8703 88.0347 34.449 88.5877 34.054C89.1144 33.6853 89.7595 33.3298 90.5232 32.9875C91.2605 32.6715 92.0769 32.4213 92.9722 32.237L93.2092 32.8295C92.2612 33.3298 91.6029 33.8697 91.2342 34.449C90.8655 35.0547 90.6812 35.6603 90.6812 36.266C90.6812 37.214 91.0235 37.8987 91.7082 38.32C92.3929 38.7677 93.2487 38.9915 94.2757 38.9915C95.092 38.9915 95.9347 38.8598 96.8037 38.5965C97.699 38.3332 98.5285 37.9777 99.2922 37.53C100.056 37.1087 100.662 36.6083 101.109 36.029C101.557 35.476 101.781 34.8835 101.781 34.2515C101.781 33.8302 101.636 33.5405 101.346 33.3825C101.057 33.2245 100.622 33.0797 100.043 32.948L94.1177 31.368C93.4857 31.21 92.959 30.9335 92.5377 30.5385C92.1164 30.1172 91.9057 29.5773 91.9057 28.919C91.9057 28.3397 92.1295 27.7603 92.5772 27.181C93.0512 26.6017 93.828 25.996 94.9077 25.364C95.9874 24.7057 97.462 23.9552 99.3317 23.1125ZM101.267 11.8155C100.53 11.8155 99.8979 12.0393 99.3712 12.487C98.8709 12.9347 98.4364 13.514 98.0677 14.225C97.7254 14.936 97.4489 15.6997 97.2382 16.516C97.0539 17.306 96.9222 18.0565 96.8432 18.7675C96.7642 19.4785 96.7247 20.0578 96.7247 20.5055C96.7247 21.3482 96.8827 21.9538 97.1987 22.3225C97.541 22.6648 97.9887 22.836 98.5417 22.836C99.4107 22.836 100.122 22.5463 100.675 21.967C101.254 21.3877 101.702 20.6635 102.018 19.7945C102.36 18.8992 102.597 17.9907 102.729 17.069C102.86 16.1473 102.926 15.331 102.926 14.62C102.926 13.7773 102.821 13.1058 102.61 12.6055C102.4 12.0788 101.952 11.8155 101.267 11.8155ZM101.583 11.1045C103.19 11.1045 104.506 11.46 105.533 12.171C106.56 12.8557 107.074 13.988 107.074 15.568C107.074 16.832 106.692 18.0828 105.928 19.3205C105.191 20.5318 104.151 21.5457 102.808 22.362C101.465 23.152 99.8715 23.547 98.0282 23.547C96.5009 23.547 95.2237 23.2047 94.1967 22.52C93.1697 21.809 92.6562 20.703 92.6562 19.202C92.6562 18.4383 92.8142 17.5957 93.1302 16.674C93.4725 15.726 93.9992 14.8438 94.7102 14.0275C95.4212 13.1848 96.3429 12.487 97.4752 11.934C98.6075 11.381 99.9769 11.1045 101.583 11.1045ZM104.506 13.1585L103.756 12.882C104.151 11.9603 104.783 11.1572 105.652 10.4725C106.547 9.78783 107.495 9.4455 108.496 9.4455C109.233 9.4455 109.812 9.65617 110.234 10.0775C110.655 10.4725 110.866 11.065 110.866 11.855C110.866 12.5923 110.681 13.1453 110.313 13.514C109.944 13.8827 109.536 14.067 109.088 14.067C108.667 14.067 108.259 13.9222 107.864 13.6325C107.495 13.3428 107.271 12.882 107.192 12.25C107.113 11.618 107.284 10.828 107.706 9.88L108.14 9.9985C107.061 10.4198 106.284 10.8675 105.81 11.3415C105.336 11.7892 104.901 12.3948 104.506 13.1585ZM120.268 30.1435L117.108 33.659L114.027 15.094C113.895 14.304 113.75 13.7642 113.592 13.4745C113.434 13.1585 113.184 13.0005 112.842 13.0005C112.579 13.0005 112.276 13.2243 111.933 13.672C111.591 14.0933 111.17 15.0018 110.669 16.3975L110.116 18.017H109.366L110.353 15.1335C110.906 13.5272 111.591 12.4607 112.407 11.934C113.224 11.381 114.08 11.1045 114.975 11.1045C115.897 11.1045 116.608 11.381 117.108 11.934C117.635 12.4607 118.003 13.4613 118.214 14.936L120.268 30.1435ZM111.341 37.53C112.526 36.9243 113.764 36.0948 115.054 35.0415C116.344 34.0145 117.674 32.6188 119.043 30.8545C120.571 28.9322 121.94 26.7992 123.151 24.4555C124.363 22.1118 125.232 19.7813 125.758 17.464C125.258 17.1743 124.745 16.832 124.218 16.437C123.718 16.0157 123.296 15.5417 122.954 15.015C122.638 14.4883 122.493 13.8958 122.519 13.2375C122.572 12.5528 122.796 12.0262 123.191 11.6575C123.586 11.2888 124.113 11.1045 124.771 11.1045C125.535 11.1045 126.088 11.3942 126.43 11.9735C126.799 12.5265 126.983 13.3428 126.983 14.4225C126.983 15.7392 126.759 17.1612 126.311 18.6885C125.89 20.1895 125.298 21.73 124.534 23.31C123.797 24.89 122.967 26.4173 122.045 27.892C121.124 29.3403 120.176 30.6702 119.201 31.8815C118.648 32.5662 117.951 33.3167 117.108 34.133C116.292 34.9757 115.357 35.792 114.303 36.582C113.276 37.372 112.131 38.0303 110.867 38.557C110.156 38.873 109.524 39.0968 108.971 39.2285C108.444 39.3602 108.01 39.426 107.667 39.426C107.035 39.426 106.509 39.268 106.087 38.952C105.64 38.636 105.416 38.1883 105.416 37.609C105.416 37.0033 105.653 36.5162 106.127 36.1475C106.575 35.7788 107.114 35.5945 107.746 35.5945C108.431 35.5945 109.063 35.7788 109.642 36.1475C110.248 36.5425 110.814 37.0033 111.341 37.53Z" fill="#FF9F80"/>
</svg>
