<svg width="702" height="411" viewBox="0 0 702 411" fill="none" xmlns="http://www.w3.org/2000/svg">
<ellipse cx="351" cy="205.5" rx="351" ry="205.5" fill="url(#paint0_radial_1118_887)"/>
<path fill-rule="evenodd" clip-rule="evenodd" d="M350.432 240.046C350.339 240.445 350.23 240.858 350.105 241.284L324.828 325.279C323.991 328.105 323.363 330.878 322.944 333.6C322.63 336.321 322.735 338.833 323.258 341.136C323.886 343.334 325.09 345.061 326.869 346.317C328.649 347.573 331.265 348.201 334.719 348.201C337.336 348.201 339.848 347.677 342.255 346.631C344.663 345.689 346.913 344.066 349.006 341.764C351.1 339.356 352.827 336.112 354.187 332.03L358.112 320.569H355.129L352.774 327.006C350.786 332.658 348.902 336.53 347.122 338.624C345.343 340.717 343.564 341.764 341.784 341.764C340.005 341.764 338.906 340.979 338.487 339.409C338.173 337.839 338.383 335.588 339.115 332.658L367.434 236.914L350.432 240.046ZM181.804 240.656C176.78 236.888 168.93 235.004 158.254 235.004C154.486 235.004 150.822 235.056 147.264 235.161C143.705 235.265 139.885 235.318 135.803 235.318H128.267C125.755 235.213 123.347 235.161 121.045 235.161C118.847 235.056 116.963 234.951 115.393 234.847L114.608 237.987C118.69 237.987 121.463 238.51 122.929 239.557C124.499 240.499 125.231 241.964 125.127 243.953C125.022 245.837 124.603 248.349 123.871 251.489L103.147 329.361C102.205 333.129 101.158 335.955 100.007 337.839C98.8553 339.723 97.2853 340.979 95.2967 341.607C93.308 342.235 90.5343 342.653 86.9757 342.863L86.3477 346.003C87.9177 345.898 89.854 345.846 92.1567 345.846C94.4593 345.741 96.919 345.689 99.5357 345.689C102.152 345.584 104.717 345.532 107.229 345.532C113.09 345.532 118.114 345.636 122.301 345.846C126.592 345.95 130.622 346.003 134.39 346.003C140.67 346.003 146.688 345.322 152.445 343.962C158.201 342.496 163.33 340.403 167.831 337.682C172.436 334.856 176.047 331.402 178.664 327.32C181.385 323.133 182.746 318.214 182.746 312.562C182.746 306.282 180.495 300.839 175.995 296.234C171.599 291.524 164.22 288.593 153.858 287.442C160.242 285.976 166.104 283.778 171.442 280.848C176.884 277.917 181.228 274.306 184.473 270.015C187.717 265.619 189.34 260.699 189.34 255.257C189.34 249.186 186.828 244.319 181.804 240.656ZM131.695 289.64L121.202 329.361C120.469 332.187 120.05 334.594 119.946 336.583C119.841 338.571 120.417 340.037 121.673 340.979C122.929 341.921 125.231 342.392 128.581 342.392C136.849 342.392 143.548 341.083 148.677 338.467C153.805 335.745 157.573 331.977 159.981 327.163C162.388 322.243 163.592 316.539 163.592 310.05C163.592 305.863 162.859 302.252 161.394 299.217C160.033 296.181 157.783 293.826 154.643 292.152C151.607 290.477 147.578 289.64 142.554 289.64H131.695ZM141.141 286.971H132.401L142.397 249.134C143.548 244.528 144.961 241.545 146.636 240.185C148.415 238.719 151.346 237.987 155.428 237.987C160.975 237.987 164.9 239.452 167.203 242.383C169.61 245.313 170.814 249.605 170.814 255.257C170.814 260.699 169.61 265.88 167.203 270.8C164.9 275.614 161.498 279.539 156.998 282.575C152.602 285.505 147.316 286.971 141.141 286.971ZM227.245 229.195C224.733 231.288 223.268 234.009 222.849 237.359C222.431 240.185 223.059 242.592 224.733 244.581C226.408 246.465 228.763 247.407 231.798 247.407C235.043 247.407 237.921 246.36 240.433 244.267C243.05 242.069 244.568 239.347 244.986 236.103C245.405 233.277 244.725 230.922 242.945 229.038C241.271 227.049 238.916 226.055 235.88 226.055C232.636 226.055 229.757 227.101 227.245 229.195ZM215.627 269.387C218.977 269.387 219.657 272.422 217.668 278.493L201.34 325.279C199.875 329.465 199.038 333.338 198.828 336.897C198.619 340.351 199.404 343.124 201.183 345.218C203.067 347.206 206.26 348.201 210.76 348.201C213.272 348.201 215.732 347.677 218.139 346.631C220.651 345.689 223.006 344.066 225.204 341.764C227.402 339.461 229.234 336.216 230.699 332.03L234.781 320.569H231.798L229.286 327.006C227.088 332.762 225.1 336.687 223.32 338.781C221.541 340.769 219.709 341.764 217.825 341.764C216.046 341.764 214.947 340.979 214.528 339.409C214.11 337.839 214.424 335.588 215.47 332.658L232.112 284.93C232.95 282.522 233.578 280.063 233.996 277.551C234.415 274.934 234.415 272.527 233.996 270.329C233.578 268.131 232.479 266.351 230.699 264.991C228.92 263.63 226.303 262.95 222.849 262.95C220.442 262.95 217.93 263.421 215.313 264.363C212.801 265.305 210.446 266.927 208.248 269.23C206.05 271.532 204.166 274.829 202.596 279.121L198.514 290.739H201.497L204.009 284.145C205.893 279.016 207.725 275.3 209.504 272.998C211.284 270.59 213.325 269.387 215.627 269.387ZM282.446 270.172C285.376 267.45 288.359 266.09 291.395 266.09C294.011 266.09 295.948 267.084 297.204 269.073C298.46 270.957 299.088 274.201 299.088 278.807C299.088 284.563 298.512 290.529 297.361 296.705C296.314 302.88 294.796 308.846 292.808 314.603C290.924 320.255 288.673 325.383 286.057 329.989C283.44 334.594 280.666 338.257 277.736 340.979C274.805 343.7 271.822 345.061 268.787 345.061C266.275 345.061 264.338 344.066 262.978 342.078C261.722 339.984 261.094 336.74 261.094 332.344C261.094 326.796 261.617 320.935 262.664 314.76C263.815 308.584 265.385 302.618 267.374 296.862C269.362 291.105 271.613 285.924 274.125 281.319C276.741 276.609 279.515 272.893 282.446 270.172ZM246.964 308.009C245.708 313.451 245.08 318.475 245.08 323.081C245.08 331.454 247.121 337.734 251.203 341.921C255.285 346.107 260.832 348.201 267.845 348.201C274.02 348.201 279.62 346.892 284.644 344.276C289.772 341.659 294.168 338.205 297.832 333.914C301.6 329.518 304.792 324.651 307.409 319.313C310.025 313.975 311.962 308.584 313.218 303.142C314.474 297.699 315.102 292.675 315.102 288.07C315.102 279.592 313.061 273.312 308.979 269.23C304.897 265.043 299.349 262.95 292.337 262.95C286.161 262.95 280.509 264.258 275.381 266.875C270.357 269.491 265.961 272.998 262.193 277.394C258.529 281.685 255.389 286.5 252.773 291.838C250.156 297.176 248.22 302.566 246.964 308.009ZM406.022 270.172C408.952 267.45 411.935 266.09 414.971 266.09C417.587 266.09 419.524 267.084 420.78 269.073C422.036 270.957 422.664 274.201 422.664 278.807C422.664 284.563 422.088 290.529 420.937 296.705C419.89 302.88 418.372 308.846 416.384 314.603C414.5 320.255 412.249 325.383 409.633 329.989C407.016 334.594 404.242 338.257 401.312 340.979C398.381 343.7 395.398 345.061 392.363 345.061C389.851 345.061 387.914 344.066 386.554 342.078C385.298 339.984 384.67 336.74 384.67 332.344C384.67 326.796 385.193 320.935 386.24 314.76C387.391 308.584 388.961 302.618 390.95 296.862C392.938 291.105 395.189 285.924 397.701 281.319C400.317 276.609 403.091 272.893 406.022 270.172ZM370.54 308.009C369.284 313.451 368.656 318.475 368.656 323.081C368.656 331.454 370.697 337.734 374.779 341.921C378.861 346.107 384.408 348.201 391.421 348.201C397.596 348.201 403.196 346.892 408.22 344.276C413.348 341.659 417.744 338.205 421.408 333.914C425.176 329.518 428.368 324.651 430.985 319.313C433.601 313.975 435.538 308.584 436.794 303.142C438.05 297.699 438.678 292.675 438.678 288.07C438.678 279.592 436.637 273.312 432.555 269.23C428.473 265.043 422.925 262.95 415.913 262.95C409.737 262.95 404.085 264.258 398.957 266.875C393.933 269.491 389.537 272.998 385.769 277.394C382.105 281.685 378.965 286.5 376.349 291.838C373.732 297.176 371.796 302.566 370.54 308.009ZM475.146 312.383C474.662 312.398 474.174 312.405 473.681 312.405C467.611 312.405 462.534 311.044 458.452 308.323C454.37 305.497 452.329 301.101 452.329 295.135C452.329 292.099 452.957 288.75 454.213 285.087C455.574 281.319 457.667 277.812 460.493 274.568C463.319 271.218 466.983 268.445 471.483 266.247C475.984 264.049 481.427 262.95 487.811 262.95C492.234 262.95 496.104 263.628 499.421 264.983C500.695 263.345 502.216 261.83 503.982 260.438C507.541 257.716 511.309 256.356 515.286 256.356C518.217 256.356 520.52 257.193 522.194 258.868C523.869 260.438 524.706 262.793 524.706 265.933C524.706 268.863 523.974 271.061 522.508 272.527C521.043 273.992 519.421 274.725 517.641 274.725C515.967 274.725 514.344 274.149 512.774 272.998C511.309 271.846 510.419 270.015 510.105 267.503C509.832 265.319 510.311 262.66 511.541 259.527C508.444 260.913 506.134 262.368 504.61 263.892C503.827 264.631 503.071 265.48 502.342 266.437C502.742 266.675 503.132 266.926 503.511 267.189C507.593 269.91 509.634 274.411 509.634 280.691C509.634 285.715 508.117 290.686 505.081 295.606C502.151 300.42 498.016 304.45 492.678 307.695C489.347 309.655 485.627 311.003 481.521 311.739C478.573 313.263 475.855 314.689 473.367 316.016C470.227 317.586 467.715 319.103 465.831 320.569C463.947 321.929 463.005 323.238 463.005 324.494C463.005 325.54 463.686 326.482 465.046 327.32C466.512 328.052 468.71 328.837 471.64 329.675L483.729 333.129C486.974 333.966 489.905 335.013 492.521 336.269C495.243 337.42 497.388 338.938 498.958 340.822C500.633 342.601 501.47 344.956 501.47 347.887C501.47 350.922 500.476 354.062 498.487 357.307C496.499 360.656 493.568 363.744 489.695 366.57C485.823 369.5 481.008 371.855 475.251 373.635C469.495 375.519 462.848 376.461 455.312 376.461C449.87 376.461 445.212 375.937 441.339 374.891C437.362 373.949 434.379 372.588 432.39 370.809C430.297 369.029 429.25 366.936 429.25 364.529C429.25 362.749 429.878 360.97 431.134 359.191C432.286 357.411 433.96 355.737 436.158 354.167C438.252 352.701 440.816 351.288 443.851 349.928C446.782 348.672 450.027 347.677 453.585 346.945L454.527 349.3C450.759 351.288 448.143 353.434 446.677 355.737C445.212 358.144 444.479 360.551 444.479 362.959C444.479 366.727 445.84 369.448 448.561 371.123C451.283 372.902 454.684 373.792 458.766 373.792C462.011 373.792 465.36 373.268 468.814 372.222C472.373 371.175 475.67 369.762 478.705 367.983C481.741 366.308 484.148 364.319 485.927 362.017C487.707 359.819 488.596 357.464 488.596 354.952C488.596 353.277 488.021 352.126 486.869 351.498C485.718 350.87 483.991 350.294 481.688 349.771L458.138 343.491C455.626 342.863 453.533 341.764 451.858 340.194C450.184 338.519 449.346 336.373 449.346 333.757C449.346 331.454 450.236 329.151 452.015 326.849C453.899 324.546 456.987 322.139 461.278 319.627C464.827 317.463 469.45 315.048 475.146 312.383ZM479.019 268.445C481.113 266.665 483.625 265.776 486.555 265.776C489.277 265.776 491.056 266.822 491.893 268.916C492.731 270.904 493.149 273.573 493.149 276.923C493.149 279.749 492.888 282.993 492.364 286.657C491.841 290.32 490.899 293.931 489.538 297.49C488.282 300.944 486.503 303.822 484.2 306.125C482.002 308.427 479.176 309.579 475.722 309.579C473.524 309.579 471.745 308.898 470.384 307.538C469.128 306.072 468.5 303.665 468.5 300.316C468.5 298.536 468.657 296.234 468.971 293.408C469.285 290.582 469.809 287.599 470.541 284.459C471.379 281.214 472.478 278.179 473.838 275.353C475.304 272.527 477.031 270.224 479.019 268.445ZM557.071 350.81L545.121 278.807C544.598 275.667 544.022 273.521 543.394 272.37C542.766 271.114 541.772 270.486 540.411 270.486C539.365 270.486 538.161 271.375 536.8 273.155C535.44 274.829 533.765 278.44 531.776 283.988L529.578 290.425H526.595L530.52 278.964C532.718 272.579 535.44 268.34 538.684 266.247C541.929 264.049 545.331 262.95 548.889 262.95C552.553 262.95 555.379 264.049 557.367 266.247C559.461 268.34 560.926 272.317 561.763 278.179L569.511 335.541C573.822 329.502 577.782 322.994 581.388 316.016C586.203 306.7 589.657 297.437 591.75 288.227C589.762 287.075 587.721 285.715 585.627 284.145C583.639 282.47 581.964 280.586 580.603 278.493C579.347 276.399 578.772 274.044 578.876 271.428C579.086 268.706 579.975 266.613 581.545 265.148C583.115 263.682 585.209 262.95 587.825 262.95C590.861 262.95 593.059 264.101 594.419 266.404C595.885 268.602 596.617 271.846 596.617 276.138C596.617 281.371 595.728 287.023 593.948 293.094C592.274 299.06 589.919 305.183 586.883 311.463C583.953 317.743 580.656 323.813 576.992 329.675C573.329 335.431 569.561 340.717 565.688 345.532C563.49 348.253 560.717 351.236 557.367 354.481C554.123 357.83 550.407 361.075 546.22 364.215C542.138 367.355 537.585 369.971 532.561 372.065C529.735 373.321 527.223 374.21 525.025 374.734C522.932 375.257 521.205 375.519 519.844 375.519C517.332 375.519 515.239 374.891 513.564 373.635C511.785 372.379 510.895 370.599 510.895 368.297C510.895 365.889 511.837 363.953 513.721 362.488C515.501 361.022 517.646 360.29 520.158 360.29C522.88 360.29 525.392 361.022 527.694 362.488C530.102 364.058 532.352 365.889 534.445 367.983C539.155 365.575 544.075 362.278 549.203 358.092C551.786 356.036 554.408 353.609 557.071 350.81Z" fill="#FF9F80"/>
<path fill-rule="evenodd" clip-rule="evenodd" d="M75.2559 155.288C81.5547 158.267 89.0742 159.756 97.8145 159.756C106.066 159.756 113.244 158.413 119.348 155.728C125.451 153.042 130.188 149.258 133.557 144.375C136.926 139.492 138.61 133.779 138.61 127.236C138.61 123.33 137.951 119.814 136.633 116.689C135.363 113.516 133.41 110.708 130.773 108.267C128.186 105.776 124.865 103.604 120.812 101.748C116.809 99.8926 112.072 98.3057 106.604 96.9873L94.8115 94.2041C89.8311 92.9834 85.8027 91.6406 82.7266 90.1758C79.6992 88.7109 77.4775 87.002 76.0615 85.0488C74.6455 83.0957 73.9375 80.8008 73.9375 78.1641C73.9375 74.8438 74.8896 71.9385 76.7939 69.4482C78.7471 66.9092 81.4082 64.9316 84.7773 63.5156C88.1953 62.0508 92.0771 61.3184 96.4229 61.3184C103.308 61.3184 108.85 63.125 113.049 66.7383C117.248 70.3027 119.543 75.2344 119.934 81.5332H135.681C135.437 74.4043 133.703 68.2764 130.48 63.1494C127.307 58.0225 122.839 54.0674 117.077 51.2842C111.315 48.501 104.504 47.1094 96.6426 47.1094C88.8789 47.1094 82.0674 48.4521 76.208 51.1377C70.3486 53.7744 65.8076 57.4854 62.585 62.2705C59.3623 67.0068 57.751 72.5732 57.751 78.9697C57.751 86.5381 60.2656 92.6904 65.2949 97.4268C70.373 102.163 78.4297 105.825 89.4648 108.413L101.403 111.27C106.481 112.441 110.534 113.809 113.562 115.371C116.638 116.934 118.859 118.765 120.227 120.864C121.643 122.915 122.351 125.332 122.351 128.115C122.351 131.68 121.325 134.78 119.274 137.417C117.224 140.005 114.367 142.007 110.705 143.423C107.092 144.839 102.795 145.547 97.8145 145.547C92.3945 145.547 87.7314 144.644 83.8252 142.837C79.9678 141.03 77.0137 138.418 74.9629 135C72.9121 131.533 71.8623 127.407 71.8135 122.622H55.5537C55.5537 130.288 57.2627 136.904 60.6807 142.471C64.0986 148.037 68.957 152.31 75.2559 155.288ZM166.662 154.629C172.229 158.047 178.698 159.756 186.071 159.756C193.444 159.756 199.89 158.047 205.407 154.629C210.974 151.211 215.295 146.475 218.371 140.42C221.496 134.365 223.059 127.383 223.059 119.473C223.059 111.465 221.496 104.434 218.371 98.3789C215.295 92.2754 210.974 87.5146 205.407 84.0967C199.89 80.6299 193.444 78.8965 186.071 78.8965C178.698 78.8965 172.229 80.6299 166.662 84.0967C161.096 87.5146 156.75 92.2754 153.625 98.3789C150.549 104.434 149.011 111.465 149.011 119.473C149.011 127.383 150.549 134.365 153.625 140.42C156.75 146.475 161.096 151.211 166.662 154.629ZM197.424 143.13C194.25 145.327 190.466 146.426 186.071 146.426C181.628 146.426 177.819 145.327 174.646 143.13C171.472 140.884 169.006 137.759 167.248 133.755C165.539 129.702 164.685 124.941 164.685 119.473C164.685 113.906 165.539 109.097 167.248 105.044C169.006 100.942 171.472 97.793 174.646 95.5957C177.868 93.3496 181.677 92.2266 186.071 92.2266C190.466 92.2266 194.25 93.3496 197.424 95.5957C200.646 97.8418 203.112 100.991 204.821 105.044C206.579 109.097 207.458 113.906 207.458 119.473C207.458 124.893 206.579 129.629 204.821 133.682C203.112 137.734 200.646 140.884 197.424 143.13ZM258.508 93.3984H272.863H274.255H286.486V139.541C286.486 145.742 288.244 150.381 291.76 153.457C295.275 156.484 300.671 157.998 307.946 157.998H313.073H317.688V145.254H314.025H310.144C307.067 145.254 304.919 144.692 303.698 143.569C302.526 142.397 301.94 140.396 301.94 137.563V93.3984H317.688V80.6543H301.94V59.5605H286.486V80.6543H274.255H272.863H258.508V70.6201C258.508 67.3975 259.191 65.1025 260.559 63.7354C261.926 62.3193 264.196 61.6113 267.37 61.6113H271.179H274.255V48.8672H270.666H265.026C260.388 48.8672 256.433 49.624 253.161 51.1377C249.89 52.6514 247.375 54.8486 245.617 57.7295C243.908 60.5615 243.054 64.0283 243.054 68.1299V80.6543H229.211V93.3984H243.054V157.998H258.508V93.3984ZM349.744 155.319L367.259 155.319L376.428 124.307C377.404 120.986 378.332 117.593 379.211 114.126C380.139 110.659 381.042 107.192 381.921 103.726C382.258 102.449 382.595 101.182 382.931 99.9252C383.257 101.182 383.579 102.449 383.898 103.726L386.535 114.126C387.463 117.593 388.391 120.986 389.318 124.307L399.133 157.998H415.246L439.196 80.6543H422.863L413.928 112.295C412.463 117.666 411.022 123.159 409.606 128.774C408.605 132.886 407.591 136.944 406.564 140.951C405.528 136.944 404.491 132.886 403.454 128.774C402.087 123.11 400.646 117.617 399.133 112.295L390.271 80.6543H375.549L366.54 112.295C365.075 117.617 363.61 123.11 362.146 128.774C361.097 132.934 360.048 137.04 358.999 141.093C357.959 137.04 356.933 132.934 355.92 128.774C354.602 123.11 353.186 117.617 351.672 112.295L342.81 80.6543H326.623L349.744 155.319ZM458.532 156.606C462.585 158.364 467.175 159.243 472.302 159.243C476.745 159.243 480.456 158.657 483.435 157.485C486.462 156.313 488.903 154.8 490.759 152.944C492.614 151.089 494.079 149.111 495.153 147.012H495.446V157.998H510.681V104.971C510.681 101.064 509.973 97.5244 508.557 94.3506C507.189 91.1768 505.163 88.4668 502.478 86.2207C499.841 83.9258 496.618 82.168 492.81 80.9473C489.001 79.7266 484.729 79.1162 479.992 79.1162C473.547 79.1162 467.932 80.1904 463.146 82.3389C458.361 84.4873 454.602 87.4414 451.867 91.2012C449.133 94.9609 447.644 99.3066 447.399 104.238H462.561C462.756 101.846 463.586 99.7217 465.051 97.8662C466.564 95.9619 468.566 94.4727 471.057 93.3984C473.596 92.3242 476.501 91.7871 479.772 91.7871C483.044 91.7871 485.852 92.3486 488.195 93.4717C490.539 94.5947 492.321 96.1328 493.542 98.0859C494.763 99.9902 495.373 102.188 495.373 104.678V105.337C495.373 107.192 494.763 108.535 493.542 109.365C492.37 110.146 490.368 110.732 487.536 111.123C484.753 111.465 480.92 111.953 476.037 112.588C472.131 113.027 468.347 113.687 464.685 114.565C461.022 115.396 457.751 116.641 454.87 118.301C451.989 119.961 449.694 122.207 447.985 125.039C446.325 127.871 445.495 131.484 445.495 135.879C445.495 141.006 446.667 145.303 449.011 148.77C451.354 152.236 454.528 154.849 458.532 156.606ZM486.657 144.375C483.728 145.986 479.992 146.792 475.451 146.792C472.473 146.792 469.885 146.377 467.688 145.547C465.49 144.668 463.806 143.447 462.634 141.885C461.462 140.273 460.876 138.369 460.876 136.172C460.876 133.535 461.608 131.411 463.073 129.8C464.587 128.188 466.564 126.943 469.006 126.064C471.447 125.137 474.084 124.478 476.916 124.087C478.918 123.843 480.92 123.55 482.922 123.208C484.924 122.866 486.779 122.549 488.488 122.256C490.197 121.914 491.638 121.572 492.81 121.23C494.03 120.84 494.909 120.425 495.446 119.985V129.067C495.446 132.241 494.714 135.171 493.249 137.856C491.833 140.542 489.636 142.715 486.657 144.375ZM528.112 80.6543V157.998H543.566V112.295C543.566 108.047 544.274 104.556 545.69 101.821C547.106 99.0869 549.011 97.0605 551.403 95.7422C553.845 94.4238 556.506 93.7646 559.387 93.7646C561.193 93.7646 562.854 93.8623 564.367 94.0576C565.881 94.2041 566.931 94.3506 567.517 94.4971V80.0684C566.931 79.9707 566.125 79.8975 565.1 79.8486C564.123 79.751 563.049 79.7021 561.877 79.7021C556.945 79.7021 552.941 80.8984 549.865 83.291C546.838 85.6348 544.616 88.9307 543.2 93.1787H542.907V80.6543H528.112ZM591.174 154.556C596.691 158.022 603.283 159.756 610.949 159.756C616.76 159.756 622.058 158.682 626.843 156.533C631.677 154.385 635.681 151.431 638.854 147.671C642.077 143.862 644.152 139.468 645.08 134.487H630.212C629.479 136.929 628.259 139.077 626.55 140.933C624.841 142.788 622.692 144.253 620.104 145.327C617.517 146.353 614.538 146.865 611.169 146.865C606.53 146.865 602.575 145.815 599.304 143.716C596.081 141.616 593.615 138.711 591.906 135C590.37 131.621 589.524 127.788 589.369 123.501H646.252V119.326C646.252 113.32 645.397 107.852 643.688 102.92C641.979 97.9883 639.538 93.7402 636.364 90.1758C633.19 86.5625 629.382 83.7793 624.938 81.8262C620.544 79.873 615.612 78.8965 610.144 78.8965C603.112 78.8965 596.887 80.6543 591.467 84.1699C586.047 87.6367 581.799 92.4219 578.723 98.5254C575.646 104.58 574.108 111.562 574.108 119.473C574.108 127.236 575.573 134.17 578.503 140.273C581.481 146.328 585.705 151.089 591.174 154.556ZM589.515 111.782C589.842 108.479 590.64 105.525 591.906 102.92C593.664 99.3555 596.105 96.6211 599.23 94.7168C602.355 92.7637 606.042 91.7871 610.29 91.7871C614.587 91.7871 618.298 92.7637 621.423 94.7168C624.597 96.6211 627.038 99.3555 628.747 102.92C630.014 105.525 630.811 108.479 631.139 111.782H589.515Z" fill="#E0E6FF"/>
<path d="M357.553 248.436C350.945 248.436 345.18 247.228 340.258 244.812C335.336 242.352 331.485 238.979 328.705 234.695C325.971 230.411 324.604 225.49 324.604 219.93C324.604 216.421 325.242 213.253 326.518 210.428C327.839 207.557 330.004 204.64 333.012 201.678C336.02 198.715 340.098 195.343 345.248 191.561L362.611 179.188C364.389 177.911 365.824 176.59 366.918 175.223C368.057 173.855 368.9 172.465 369.447 171.053C370.04 169.64 370.336 168.25 370.336 166.883C370.336 163.966 369.242 161.482 367.055 159.432C364.913 157.335 362.11 156.287 358.646 156.287C356.368 156.287 354.317 156.788 352.494 157.791C350.717 158.794 349.281 160.184 348.188 161.961C347.139 163.738 346.615 165.835 346.615 168.25C346.615 170.164 347.048 172.078 347.914 173.992C348.78 175.861 350.193 178.071 352.152 180.623C354.112 183.175 356.755 186.456 360.082 190.467L407.318 247H390.707L351.674 200.994C347.071 195.434 343.38 190.809 340.6 187.117C337.865 183.426 335.883 180.122 334.652 177.205C333.467 174.243 332.875 171.167 332.875 167.977C332.875 163.237 333.946 159.09 336.088 155.535C338.275 151.935 341.306 149.132 345.18 147.127C349.053 145.122 353.542 144.119 358.646 144.119C363.66 144.119 368.057 145.076 371.84 146.99C375.622 148.859 378.562 151.456 380.658 154.783C382.8 158.11 383.871 161.915 383.871 166.199C383.871 169.07 383.347 171.827 382.299 174.471C381.296 177.114 379.792 179.643 377.787 182.059C375.827 184.474 373.344 186.798 370.336 189.031L349.828 204.207C346.182 206.896 343.493 209.448 341.762 211.863C340.076 214.233 339.232 216.854 339.232 219.725C339.232 222.687 340.053 225.421 341.693 227.928C343.38 230.389 345.658 232.371 348.529 233.875C351.4 235.379 354.568 236.131 358.031 236.131C361.905 236.131 365.619 235.197 369.174 233.328C372.774 231.46 375.987 228.885 378.812 225.604C381.684 222.277 383.939 218.517 385.58 214.324C387.266 210.086 388.109 205.62 388.109 200.926H401.303C401.303 205.529 400.801 209.926 399.799 214.119C398.842 218.266 397.361 222.094 395.355 225.604C393.396 229.113 390.912 232.234 387.904 234.969L384.76 238.045C381.524 241.281 377.468 243.833 372.592 245.701C367.761 247.524 362.748 248.436 357.553 248.436Z" fill="url(#paint1_linear_1118_887)"/>
<path d="M362.374 254.009L363.956 247.706L370.007 246.578C370.007 246.578 364.099 248.068 362.374 254.009Z" fill="#FF9F80"/>
<path d="M345.676 256L348.612 247.291L341 245.16C341 245.16 348.372 247.465 345.676 256Z" fill="#FF9F80"/>
<path d="M371.785 140.008L369.601 146.299L375.004 148.863C370.158 145.331 371.785 140.008 371.785 140.008Z" fill="#E0E5FF"/>
<path d="M345.004 140.008L347.294 146.458L342.12 149.004C346.812 145.795 345.004 140.008 345.004 140.008Z" fill="#E0E5FF"/>
<defs>
<radialGradient id="paint0_radial_1118_887" cx="0" cy="0" r="1" gradientUnits="userSpaceOnUse" gradientTransform="translate(351 206) rotate(90) scale(205 350.22)">
<stop stop-color="#2D3040"/>
<stop offset="1" stop-color="#2D3040" stop-opacity="0"/>
</radialGradient>
<linearGradient id="paint1_linear_1118_887" x1="363.5" y1="145" x2="363.5" y2="247" gradientUnits="userSpaceOnUse">
<stop offset="0.05" stop-color="#E0E6FF"/>
<stop offset="0.95" stop-color="#FF9F80"/>
</linearGradient>
</defs>
</svg>
