<svg width="592" height="330" viewBox="0 0 592 330" fill="none" xmlns="http://www.w3.org/2000/svg">
<path fill-rule="evenodd" clip-rule="evenodd" d="M295.432 193.046C295.339 193.445 295.23 193.858 295.105 194.284L269.828 278.279C268.991 281.105 268.363 283.878 267.944 286.6C267.63 289.321 267.735 291.833 268.258 294.136C268.886 296.334 270.09 298.061 271.869 299.317C273.649 300.573 276.265 301.201 279.719 301.201C282.336 301.201 284.848 300.677 287.255 299.631C289.663 298.689 291.913 297.066 294.006 294.764C296.1 292.356 297.827 289.112 299.187 285.03L303.112 273.569H300.129L297.774 280.006C295.786 285.658 293.902 289.53 292.122 291.624C290.343 293.717 288.564 294.764 286.784 294.764C285.005 294.764 283.906 293.979 283.487 292.409C283.173 290.839 283.383 288.588 284.115 285.658L312.434 189.914L295.432 193.046ZM126.804 193.656C121.78 189.888 113.93 188.004 103.254 188.004C99.4857 188.004 95.8223 188.056 92.2637 188.161C88.705 188.265 84.8847 188.318 80.8027 188.318H73.2667C70.7547 188.213 68.3473 188.161 66.0447 188.161C63.8467 188.056 61.9627 187.951 60.3927 187.847L59.6077 190.987C63.6897 190.987 66.4633 191.51 67.9287 192.557C69.4987 193.499 70.2313 194.964 70.1267 196.953C70.022 198.837 69.6033 201.349 68.8707 204.489L48.1467 282.361C47.2047 286.129 46.158 288.955 45.0067 290.839C43.8553 292.723 42.2853 293.979 40.2967 294.607C38.308 295.235 35.5343 295.653 31.9757 295.863L31.3477 299.003C32.9177 298.898 34.854 298.846 37.1567 298.846C39.4593 298.741 41.919 298.689 44.5357 298.689C47.1523 298.584 49.7167 298.532 52.2287 298.532C58.09 298.532 63.114 298.636 67.3007 298.846C71.592 298.95 75.6217 299.003 79.3897 299.003C85.6697 299.003 91.688 298.322 97.4447 296.962C103.201 295.496 108.33 293.403 112.831 290.682C117.436 287.856 121.047 284.402 123.664 280.32C126.385 276.133 127.746 271.214 127.746 265.562C127.746 259.282 125.495 253.839 120.995 249.234C116.599 244.524 109.22 241.593 98.8577 240.442C105.242 238.976 111.104 236.778 116.442 233.848C121.884 230.917 126.228 227.306 129.473 223.015C132.717 218.619 134.34 213.699 134.34 208.257C134.34 202.186 131.828 197.319 126.804 193.656ZM76.6955 242.64L66.2017 282.361C65.469 285.187 65.0503 287.594 64.9457 289.583C64.841 291.571 65.4167 293.037 66.6727 293.979C67.9287 294.921 70.2313 295.392 73.5807 295.392C81.8493 295.392 88.548 294.083 93.6767 291.467C98.8053 288.745 102.573 284.977 104.981 280.163C107.388 275.243 108.592 269.539 108.592 263.05C108.592 258.863 107.859 255.252 106.394 252.217C105.033 249.181 102.783 246.826 99.6427 245.152C96.6073 243.477 92.5777 242.64 87.5537 242.64H76.6955ZM86.1407 239.971H77.4006L87.3967 202.134C88.548 197.528 89.961 194.545 91.6357 193.185C93.415 191.719 96.3457 190.987 100.428 190.987C105.975 190.987 109.9 192.452 112.203 195.383C114.61 198.313 115.814 202.605 115.814 208.257C115.814 213.699 114.61 218.88 112.203 223.8C109.9 228.614 106.498 232.539 101.998 235.575C97.6017 238.505 92.316 239.971 86.1407 239.971ZM172.245 182.195C169.733 184.288 168.268 187.009 167.849 190.359C167.431 193.185 168.059 195.592 169.733 197.581C171.408 199.465 173.763 200.407 176.798 200.407C180.043 200.407 182.921 199.36 185.433 197.267C188.05 195.069 189.568 192.347 189.986 189.103C190.405 186.277 189.725 183.922 187.945 182.038C186.271 180.049 183.916 179.055 180.88 179.055C177.636 179.055 174.757 180.101 172.245 182.195ZM160.627 222.387C163.977 222.387 164.657 225.422 162.668 231.493L146.34 278.279C144.875 282.465 144.038 286.338 143.828 289.897C143.619 293.351 144.404 296.124 146.183 298.218C148.067 300.206 151.26 301.201 155.76 301.201C158.272 301.201 160.732 300.677 163.139 299.631C165.651 298.689 168.006 297.066 170.204 294.764C172.402 292.461 174.234 289.216 175.699 285.03L179.781 273.569H176.798L174.286 280.006C172.088 285.762 170.1 289.687 168.32 291.781C166.541 293.769 164.709 294.764 162.825 294.764C161.046 294.764 159.947 293.979 159.528 292.409C159.11 290.839 159.424 288.588 160.47 285.658L177.112 237.93C177.95 235.522 178.578 233.063 178.996 230.551C179.415 227.934 179.415 225.527 178.996 223.329C178.578 221.131 177.479 219.351 175.699 217.991C173.92 216.63 171.303 215.95 167.849 215.95C165.442 215.95 162.93 216.421 160.313 217.363C157.801 218.305 155.446 219.927 153.248 222.23C151.05 224.532 149.166 227.829 147.596 232.121L143.514 243.739H146.497L149.009 237.145C150.893 232.016 152.725 228.3 154.504 225.998C156.284 223.59 158.325 222.387 160.627 222.387ZM227.446 223.172C230.376 220.45 233.359 219.09 236.395 219.09C239.011 219.09 240.948 220.084 242.204 222.073C243.46 223.957 244.088 227.201 244.088 231.807C244.088 237.563 243.512 243.529 242.361 249.705C241.314 255.88 239.796 261.846 237.808 267.603C235.924 273.255 233.673 278.383 231.057 282.989C228.44 287.594 225.666 291.257 222.736 293.979C219.805 296.7 216.822 298.061 213.787 298.061C211.275 298.061 209.338 297.066 207.978 295.078C206.722 292.984 206.094 289.74 206.094 285.344C206.094 279.796 206.617 273.935 207.664 267.76C208.815 261.584 210.385 255.618 212.374 249.862C214.362 244.105 216.613 238.924 219.125 234.319C221.741 229.609 224.515 225.893 227.446 223.172ZM191.964 261.009C190.708 266.451 190.08 271.475 190.08 276.081C190.08 284.454 192.121 290.734 196.203 294.921C200.285 299.107 205.832 301.201 212.845 301.201C219.02 301.201 224.62 299.892 229.644 297.276C234.772 294.659 239.168 291.205 242.832 286.914C246.6 282.518 249.792 277.651 252.409 272.313C255.025 266.975 256.962 261.584 258.218 256.142C259.474 250.699 260.102 245.675 260.102 241.07C260.102 232.592 258.061 226.312 253.979 222.23C249.897 218.043 244.349 215.95 237.337 215.95C231.161 215.95 225.509 217.258 220.381 219.875C215.357 222.491 210.961 225.998 207.193 230.394C203.529 234.685 200.389 239.5 197.773 244.838C195.156 250.176 193.22 255.566 191.964 261.009ZM351.022 223.172C353.952 220.45 356.935 219.09 359.971 219.09C362.587 219.09 364.524 220.084 365.78 222.073C367.036 223.957 367.664 227.201 367.664 231.807C367.664 237.563 367.088 243.529 365.937 249.705C364.89 255.88 363.372 261.846 361.384 267.603C359.5 273.255 357.249 278.383 354.633 282.989C352.016 287.594 349.242 291.257 346.312 293.979C343.381 296.7 340.398 298.061 337.363 298.061C334.851 298.061 332.914 297.066 331.554 295.078C330.298 292.984 329.67 289.74 329.67 285.344C329.67 279.796 330.193 273.935 331.24 267.76C332.391 261.584 333.961 255.618 335.95 249.862C337.938 244.105 340.189 238.924 342.701 234.319C345.317 229.609 348.091 225.893 351.022 223.172ZM315.54 261.009C314.284 266.451 313.656 271.475 313.656 276.081C313.656 284.454 315.697 290.734 319.779 294.921C323.861 299.107 329.408 301.201 336.421 301.201C342.596 301.201 348.196 299.892 353.22 297.276C358.348 294.659 362.744 291.205 366.408 286.914C370.176 282.518 373.368 277.651 375.985 272.313C378.601 266.975 380.538 261.584 381.794 256.142C383.05 250.699 383.678 245.675 383.678 241.07C383.678 232.592 381.637 226.312 377.555 222.23C373.473 218.043 367.925 215.95 360.913 215.95C354.737 215.95 349.085 217.258 343.957 219.875C338.933 222.491 334.537 225.998 330.769 230.394C327.105 234.685 323.965 239.5 321.349 244.838C318.732 250.176 316.796 255.566 315.54 261.009ZM420.146 265.383C419.662 265.398 419.174 265.405 418.681 265.405C412.611 265.405 407.534 264.044 403.452 261.323C399.37 258.497 397.329 254.101 397.329 248.135C397.329 245.099 397.957 241.75 399.213 238.087C400.574 234.319 402.667 230.812 405.493 227.568C408.319 224.218 411.983 221.445 416.483 219.247C420.984 217.049 426.427 215.95 432.811 215.95C437.234 215.95 441.104 216.628 444.421 217.983C445.695 216.345 447.216 214.83 448.982 213.438C452.541 210.716 456.309 209.356 460.286 209.356C463.217 209.356 465.52 210.193 467.194 211.868C468.869 213.438 469.706 215.793 469.706 218.933C469.706 221.863 468.974 224.061 467.508 225.527C466.043 226.992 464.421 227.725 462.641 227.725C460.967 227.725 459.344 227.149 457.774 225.998C456.309 224.846 455.419 223.015 455.105 220.503C454.832 218.319 455.311 215.66 456.541 212.527C453.444 213.913 451.134 215.368 449.61 216.892C448.827 217.631 448.071 218.48 447.342 219.437C447.742 219.675 448.132 219.926 448.511 220.189C452.593 222.91 454.634 227.411 454.634 233.691C454.634 238.715 453.117 243.686 450.081 248.606C447.151 253.42 443.016 257.45 437.678 260.695C434.347 262.655 430.627 264.003 426.521 264.739C423.573 266.263 420.855 267.689 418.367 269.016C415.227 270.586 412.715 272.103 410.831 273.569C408.947 274.929 408.005 276.238 408.005 277.494C408.005 278.54 408.686 279.482 410.046 280.32C411.512 281.052 413.71 281.837 416.64 282.675L428.729 286.129C431.974 286.966 434.905 288.013 437.521 289.269C440.243 290.42 442.388 291.938 443.958 293.822C445.633 295.601 446.47 297.956 446.47 300.887C446.47 303.922 445.476 307.062 443.487 310.307C441.499 313.656 438.568 316.744 434.695 319.57C430.823 322.5 426.008 324.855 420.251 326.635C414.495 328.519 407.848 329.461 400.312 329.461C394.87 329.461 390.212 328.937 386.339 327.891C382.362 326.949 379.379 325.588 377.39 323.809C375.297 322.029 374.25 319.936 374.25 317.529C374.25 315.749 374.878 313.97 376.134 312.191C377.286 310.411 378.96 308.737 381.158 307.167C383.252 305.701 385.816 304.288 388.851 302.928C391.782 301.672 395.027 300.677 398.585 299.945L399.527 302.3C395.759 304.288 393.143 306.434 391.677 308.737C390.212 311.144 389.479 313.551 389.479 315.959C389.479 319.727 390.84 322.448 393.561 324.123C396.283 325.902 399.684 326.792 403.766 326.792C407.011 326.792 410.36 326.268 413.814 325.222C417.373 324.175 420.67 322.762 423.705 320.983C426.741 319.308 429.148 317.319 430.927 315.017C432.707 312.819 433.596 310.464 433.596 307.952C433.596 306.277 433.021 305.126 431.869 304.498C430.718 303.87 428.991 303.294 426.688 302.771L403.138 296.491C400.626 295.863 398.533 294.764 396.858 293.194C395.184 291.519 394.346 289.373 394.346 286.757C394.346 284.454 395.236 282.151 397.015 279.849C398.899 277.546 401.987 275.139 406.278 272.627C409.827 270.463 414.45 268.048 420.146 265.383ZM424.019 221.445C426.113 219.665 428.625 218.776 431.555 218.776C434.277 218.776 436.056 219.822 436.893 221.916C437.731 223.904 438.149 226.573 438.149 229.923C438.149 232.749 437.888 235.993 437.364 239.657C436.841 243.32 435.899 246.931 434.538 250.49C433.282 253.944 431.503 256.822 429.2 259.125C427.002 261.427 424.176 262.579 420.722 262.579C418.524 262.579 416.745 261.898 415.384 260.538C414.128 259.072 413.5 256.665 413.5 253.316C413.5 251.536 413.657 249.234 413.971 246.408C414.285 243.582 414.809 240.599 415.541 237.459C416.379 234.214 417.478 231.179 418.838 228.353C420.304 225.527 422.031 223.224 424.019 221.445ZM502.071 303.81L490.121 231.807C489.598 228.667 489.022 226.521 488.394 225.37C487.766 224.114 486.772 223.486 485.411 223.486C484.365 223.486 483.161 224.375 481.8 226.155C480.44 227.829 478.765 231.44 476.776 236.988L474.578 243.425H471.595L475.52 231.964C477.718 225.579 480.44 221.34 483.684 219.247C486.929 217.049 490.331 215.95 493.889 215.95C497.553 215.95 500.379 217.049 502.367 219.247C504.461 221.34 505.926 225.317 506.763 231.179L514.511 288.541C518.822 282.502 522.782 275.994 526.388 269.016C531.203 259.7 534.657 250.437 536.75 241.227C534.762 240.075 532.721 238.715 530.627 237.145C528.639 235.47 526.964 233.586 525.603 231.493C524.347 229.399 523.772 227.044 523.876 224.428C524.086 221.706 524.975 219.613 526.545 218.148C528.115 216.682 530.209 215.95 532.825 215.95C535.861 215.95 538.059 217.101 539.419 219.404C540.885 221.602 541.617 224.846 541.617 229.138C541.617 234.371 540.728 240.023 538.948 246.094C537.274 252.06 534.919 258.183 531.883 264.463C528.953 270.743 525.656 276.813 521.992 282.675C518.329 288.431 514.561 293.717 510.688 298.532C508.49 301.253 505.717 304.236 502.367 307.481C499.123 310.83 495.407 314.075 491.22 317.215C487.138 320.355 482.585 322.971 477.561 325.065C474.735 326.321 472.223 327.21 470.025 327.734C467.932 328.257 466.205 328.519 464.844 328.519C462.332 328.519 460.239 327.891 458.564 326.635C456.785 325.379 455.895 323.599 455.895 321.297C455.895 318.889 456.837 316.953 458.721 315.488C460.501 314.022 462.646 313.29 465.158 313.29C467.88 313.29 470.392 314.022 472.694 315.488C475.102 317.058 477.352 318.889 479.445 320.983C484.155 318.575 489.075 315.278 494.203 311.092C496.786 309.036 499.408 306.609 502.071 303.81Z" fill="#FF9F80"/>
<path fill-rule="evenodd" clip-rule="evenodd" d="M20.2559 108.288C26.5547 111.267 34.0742 112.756 42.8145 112.756C51.0664 112.756 58.2441 111.413 64.3477 108.728C70.4512 106.042 75.1875 102.258 78.5566 97.375C81.9258 92.4922 83.6104 86.7793 83.6104 80.2363C83.6104 76.3301 82.9512 72.8145 81.6328 69.6895C80.3633 66.5156 78.4102 63.708 75.7734 61.2666C73.1855 58.7764 69.8652 56.6035 65.8125 54.748C61.8086 52.8926 57.0723 51.3057 51.6035 49.9873L39.8115 47.2041C34.8311 45.9834 30.8027 44.6406 27.7266 43.1758C24.6992 41.7109 22.4775 40.002 21.0615 38.0488C19.6455 36.0957 18.9375 33.8008 18.9375 31.1641C18.9375 27.8438 19.8896 24.9385 21.7939 22.4482C23.7471 19.9092 26.4082 17.9316 29.7773 16.5156C33.1953 15.0508 37.0771 14.3184 41.4229 14.3184C48.3076 14.3184 53.8496 16.125 58.0488 19.7383C62.248 23.3027 64.543 28.2344 64.9336 34.5332H80.6807C80.4365 27.4043 78.7031 21.2764 75.4805 16.1494C72.3066 11.0225 67.8389 7.06738 62.0771 4.28418C56.3154 1.50098 49.5039 0.109375 41.6426 0.109375C33.8789 0.109375 27.0674 1.45215 21.208 4.1377C15.3486 6.77441 10.8076 10.4854 7.58496 15.2705C4.3623 20.0068 2.75098 25.5732 2.75098 31.9697C2.75098 39.5381 5.26562 45.6904 10.2949 50.4268C15.373 55.1631 23.4297 58.8252 34.4648 61.4131L46.4033 64.2695C51.4814 65.4414 55.5342 66.8086 58.5615 68.3711C61.6377 69.9336 63.8594 71.7646 65.2266 73.8643C66.6426 75.915 67.3506 78.332 67.3506 81.1152C67.3506 84.6797 66.3252 87.7803 64.2744 90.417C62.2236 93.0049 59.3672 95.0068 55.7051 96.4229C52.0918 97.8389 47.7949 98.5469 42.8145 98.5469C37.3945 98.5469 32.7314 97.6436 28.8252 95.8369C24.9678 94.0303 22.0137 91.418 19.9629 88C17.9121 84.5332 16.8623 80.4072 16.8135 75.6221H0.553711C0.553711 83.2881 2.2627 89.9043 5.68066 95.4707C9.09863 101.037 13.957 105.31 20.2559 108.288ZM111.662 107.629C117.229 111.047 123.698 112.756 131.071 112.756C138.444 112.756 144.89 111.047 150.407 107.629C155.974 104.211 160.295 99.4746 163.371 93.4199C166.496 87.3652 168.059 80.3828 168.059 72.4727C168.059 64.4648 166.496 57.4336 163.371 51.3789C160.295 45.2754 155.974 40.5146 150.407 37.0967C144.89 33.6299 138.444 31.8965 131.071 31.8965C123.698 31.8965 117.229 33.6299 111.662 37.0967C106.096 40.5146 101.75 45.2754 98.625 51.3789C95.5488 57.4336 94.0107 64.4648 94.0107 72.4727C94.0107 80.3828 95.5488 87.3652 98.625 93.4199C101.75 99.4746 106.096 104.211 111.662 107.629ZM142.424 96.1299C139.25 98.3271 135.466 99.4258 131.071 99.4258C126.628 99.4258 122.819 98.3271 119.646 96.1299C116.472 93.8838 114.006 90.7588 112.248 86.7549C110.539 82.7021 109.685 77.9414 109.685 72.4727C109.685 66.9062 110.539 62.0967 112.248 58.0439C114.006 53.9424 116.472 50.793 119.646 48.5957C122.868 46.3496 126.677 45.2266 131.071 45.2266C135.466 45.2266 139.25 46.3496 142.424 48.5957C145.646 50.8418 148.112 53.9912 149.821 58.0439C151.579 62.0967 152.458 66.9062 152.458 72.4727C152.458 77.8926 151.579 82.6289 149.821 86.6816C148.112 90.7344 145.646 93.8838 142.424 96.1299ZM203.508 46.3984H217.863H219.255H231.486V92.541C231.486 98.7422 233.244 103.381 236.76 106.457C240.275 109.484 245.671 110.998 252.946 110.998H258.073H262.688V98.2539H259.025H255.144C252.067 98.2539 249.919 97.6924 248.698 96.5693C247.526 95.3975 246.94 93.3955 246.94 90.5635V46.3984H262.688V33.6543H246.94V12.5605H231.486V33.6543H219.255H217.863H203.508V23.6201C203.508 20.3975 204.191 18.1025 205.559 16.7354C206.926 15.3193 209.196 14.6113 212.37 14.6113H216.179H219.255V1.86719H215.666H210.026C205.388 1.86719 201.433 2.62402 198.161 4.1377C194.89 5.65137 192.375 7.84863 190.617 10.7295C188.908 13.5615 188.054 17.0283 188.054 21.1299V33.6543H174.211V46.3984H188.054V110.998H203.508V46.3984ZM294.744 108.319L312.259 108.319L321.428 77.3066C322.404 73.9863 323.332 70.5928 324.211 67.126C325.139 63.6592 326.042 60.1924 326.921 56.7256C327.258 55.4491 327.595 54.1823 327.931 52.9252C328.257 54.1823 328.579 55.4491 328.898 56.7256L331.535 67.126C332.463 70.5928 333.391 73.9863 334.318 77.3066L344.133 110.998H360.246L384.196 33.6543H367.863L358.928 65.2949C357.463 70.666 356.022 76.1592 354.606 81.7744C353.605 85.8856 352.591 89.9443 351.564 93.9508C350.528 89.9443 349.491 85.8856 348.454 81.7744C347.087 76.1104 345.646 70.6172 344.133 65.2949L335.271 33.6543H320.549L311.54 65.2949C310.075 70.6172 308.61 76.1104 307.146 81.7744C306.097 85.9342 305.048 90.0404 303.999 94.0929C302.959 90.0404 301.933 85.9342 300.92 81.7744C299.602 76.1104 298.186 70.6172 296.672 65.2949L287.81 33.6543H271.623L294.744 108.319ZM403.532 109.606C407.585 111.364 412.175 112.243 417.302 112.243C421.745 112.243 425.456 111.657 428.435 110.485C431.462 109.313 433.903 107.8 435.759 105.944C437.614 104.089 439.079 102.111 440.153 100.012H440.446V110.998H455.681V57.9707C455.681 54.0645 454.973 50.5244 453.557 47.3506C452.189 44.1768 450.163 41.4668 447.478 39.2207C444.841 36.9258 441.618 35.168 437.81 33.9473C434.001 32.7266 429.729 32.1162 424.992 32.1162C418.547 32.1162 412.932 33.1904 408.146 35.3389C403.361 37.4873 399.602 40.4414 396.867 44.2012C394.133 47.9609 392.644 52.3066 392.399 57.2383H407.561C407.756 54.8457 408.586 52.7217 410.051 50.8662C411.564 48.9619 413.566 47.4727 416.057 46.3984C418.596 45.3242 421.501 44.7871 424.772 44.7871C428.044 44.7871 430.852 45.3486 433.195 46.4717C435.539 47.5947 437.321 49.1328 438.542 51.0859C439.763 52.9902 440.373 55.1875 440.373 57.6777V58.3369C440.373 60.1924 439.763 61.5352 438.542 62.3652C437.37 63.1465 435.368 63.7324 432.536 64.123C429.753 64.4648 425.92 64.9531 421.037 65.5879C417.131 66.0273 413.347 66.6865 409.685 67.5654C406.022 68.3955 402.751 69.6406 399.87 71.3008C396.989 72.9609 394.694 75.207 392.985 78.0391C391.325 80.8711 390.495 84.4844 390.495 88.8789C390.495 94.0059 391.667 98.3027 394.011 101.77C396.354 105.236 399.528 107.849 403.532 109.606ZM431.657 97.375C428.728 98.9863 424.992 99.792 420.451 99.792C417.473 99.792 414.885 99.377 412.688 98.5469C410.49 97.668 408.806 96.4473 407.634 94.8848C406.462 93.2734 405.876 91.3691 405.876 89.1719C405.876 86.5352 406.608 84.4111 408.073 82.7998C409.587 81.1885 411.564 79.9434 414.006 79.0645C416.447 78.1367 419.084 77.4775 421.916 77.0869C423.918 76.8428 425.92 76.5498 427.922 76.208C429.924 75.8662 431.779 75.5488 433.488 75.2559C435.197 74.9141 436.638 74.5723 437.81 74.2305C439.03 73.8398 439.909 73.4248 440.446 72.9854V82.0674C440.446 85.2412 439.714 88.1709 438.249 90.8564C436.833 93.542 434.636 95.7148 431.657 97.375ZM473.112 33.6543V110.998H488.566V65.2949C488.566 61.0469 489.274 57.5557 490.69 54.8213C492.106 52.0869 494.011 50.0605 496.403 48.7422C498.845 47.4238 501.506 46.7646 504.387 46.7646C506.193 46.7646 507.854 46.8623 509.367 47.0576C510.881 47.2041 511.931 47.3506 512.517 47.4971V33.0684C511.931 32.9707 511.125 32.8975 510.1 32.8486C509.123 32.751 508.049 32.7021 506.877 32.7021C501.945 32.7021 497.941 33.8984 494.865 36.291C491.838 38.6348 489.616 41.9307 488.2 46.1787H487.907V33.6543H473.112ZM536.174 107.556C541.691 111.022 548.283 112.756 555.949 112.756C561.76 112.756 567.058 111.682 571.843 109.533C576.677 107.385 580.681 104.431 583.854 100.671C587.077 96.8623 589.152 92.4678 590.08 87.4873H575.212C574.479 89.9287 573.259 92.0771 571.55 93.9326C569.841 95.7881 567.692 97.2529 565.104 98.3271C562.517 99.3525 559.538 99.8652 556.169 99.8652C551.53 99.8652 547.575 98.8154 544.304 96.7158C541.081 94.6162 538.615 91.7109 536.906 88C535.37 84.6206 534.524 80.7876 534.369 76.501H591.252V72.3262C591.252 66.3203 590.397 60.8516 588.688 55.9199C586.979 50.9883 584.538 46.7402 581.364 43.1758C578.19 39.5625 574.382 36.7793 569.938 34.8262C565.544 32.873 560.612 31.8965 555.144 31.8965C548.112 31.8965 541.887 33.6543 536.467 37.1699C531.047 40.6367 526.799 45.4219 523.723 51.5254C520.646 57.5801 519.108 64.5625 519.108 72.4727C519.108 80.2363 520.573 87.1699 523.503 93.2734C526.481 99.3281 530.705 104.089 536.174 107.556ZM534.515 64.7822C534.842 61.4795 535.64 58.5254 536.906 55.9199C538.664 52.3555 541.105 49.6211 544.23 47.7168C547.355 45.7637 551.042 44.7871 555.29 44.7871C559.587 44.7871 563.298 45.7637 566.423 47.7168C569.597 49.6211 572.038 52.3555 573.747 55.9199C575.014 58.5254 575.811 61.4795 576.139 64.7822H534.515Z" fill="#E0E6FF"/>
<path d="M302.553 201.436C295.945 201.436 290.18 200.228 285.258 197.812C280.336 195.352 276.485 191.979 273.705 187.695C270.971 183.411 269.604 178.49 269.604 172.93C269.604 169.421 270.242 166.253 271.518 163.428C272.839 160.557 275.004 157.64 278.012 154.678C281.02 151.715 285.098 148.343 290.248 144.561L307.611 132.188C309.389 130.911 310.824 129.59 311.918 128.223C313.057 126.855 313.9 125.465 314.447 124.053C315.04 122.64 315.336 121.25 315.336 119.883C315.336 116.966 314.242 114.482 312.055 112.432C309.913 110.335 307.11 109.287 303.646 109.287C301.368 109.287 299.317 109.788 297.494 110.791C295.717 111.794 294.281 113.184 293.188 114.961C292.139 116.738 291.615 118.835 291.615 121.25C291.615 123.164 292.048 125.078 292.914 126.992C293.78 128.861 295.193 131.071 297.152 133.623C299.112 136.175 301.755 139.456 305.082 143.467L352.318 200H335.707L296.674 153.994C292.071 148.434 288.38 143.809 285.6 140.117C282.865 136.426 280.883 133.122 279.652 130.205C278.467 127.243 277.875 124.167 277.875 120.977C277.875 116.237 278.946 112.09 281.088 108.535C283.275 104.935 286.306 102.132 290.18 100.127C294.053 98.1217 298.542 97.1191 303.646 97.1191C308.66 97.1191 313.057 98.0762 316.84 99.9902C320.622 101.859 323.562 104.456 325.658 107.783C327.8 111.11 328.871 114.915 328.871 119.199C328.871 122.07 328.347 124.827 327.299 127.471C326.296 130.114 324.792 132.643 322.787 135.059C320.827 137.474 318.344 139.798 315.336 142.031L294.828 157.207C291.182 159.896 288.493 162.448 286.762 164.863C285.076 167.233 284.232 169.854 284.232 172.725C284.232 175.687 285.053 178.421 286.693 180.928C288.38 183.389 290.658 185.371 293.529 186.875C296.4 188.379 299.568 189.131 303.031 189.131C306.905 189.131 310.619 188.197 314.174 186.328C317.774 184.46 320.987 181.885 323.812 178.604C326.684 175.277 328.939 171.517 330.58 167.324C332.266 163.086 333.109 158.62 333.109 153.926H346.303C346.303 158.529 345.801 162.926 344.799 167.119C343.842 171.266 342.361 175.094 340.355 178.604C338.396 182.113 335.912 185.234 332.904 187.969L329.76 191.045C326.524 194.281 322.468 196.833 317.592 198.701C312.761 200.524 307.748 201.436 302.553 201.436Z" fill="url(#paint0_linear_1118_887)"/>
<path d="M307.374 207.009L308.956 200.706L315.007 199.578C315.007 199.578 309.099 201.068 307.374 207.009Z" fill="#FF9F80"/>
<path d="M290.676 209L293.612 200.291L286 198.16C286 198.16 293.372 200.465 290.676 209Z" fill="#FF9F80"/>
<path d="M316.785 93.0078L314.601 99.2987L320.004 101.863C315.158 98.3312 316.785 93.0078 316.785 93.0078Z" fill="#E0E5FF"/>
<path d="M290.004 93.0078L292.294 99.4585L287.12 102.004C291.812 98.7945 290.004 93.0078 290.004 93.0078Z" fill="#E0E5FF"/>
<defs>
<linearGradient id="paint0_linear_1118_887" x1="308.5" y1="98" x2="308.5" y2="200" gradientUnits="userSpaceOnUse">
<stop offset="0.05" stop-color="#E0E6FF"/>
<stop offset="0.95" stop-color="#FF9F80"/>
</linearGradient>
</defs>
</svg>
